<svg version="1.1" xmlns="http://www.w3.org/2000/svg" viewBox="0 0 1210.7921142578125 569.8731689453125" width="2421.584228515625" height="1139.746337890625">
  <!-- svg-source:excalidraw -->
  
  <defs>
    <style>
      @font-face {
        font-family: "Virgil";
        src: url("https://plus.excalidraw.com/Virgil.woff2");
      }
      @font-face {
        font-family: "Cascadia";
        src: url("https://plus.excalidraw.com/Cascadia.woff2");
      }
    </style>
  </defs>
  <rect x="0" y="0" width="1210.7921142578125" height="569.8731689453125" fill="#ffffff"></rect><g stroke-linecap="round" transform="translate(10 63.247589111328125) rotate(0 595.3960571289062 248.3127899169922)"><path d="M124.16 0 M124.16 0 C381.24 4.33, 637.09 3.03, 1066.64 0 M124.16 0 C348.87 0.32, 573.86 0.12, 1066.64 0 M1066.64 0 C1151.18 -0.28, 1191.49 41.16, 1190.79 124.16 M1066.64 0 C1147.69 -0.75, 1189.14 39.98, 1190.79 124.16 M1190.79 124.16 C1188.29 202.02, 1188.63 277.92, 1190.79 372.47 M1190.79 124.16 C1188.48 188.3, 1188.4 250.64, 1190.79 372.47 M1190.79 372.47 C1192.29 456.29, 1150.91 497.01, 1066.64 496.63 M1190.79 372.47 C1190.99 456.95, 1149.32 495.63, 1066.64 496.63 M1066.64 496.63 C755.39 499.72, 444.28 499.54, 124.16 496.63 M1066.64 496.63 C732.83 494.8, 398.7 494.79, 124.16 496.63 M124.16 496.63 C40.32 494.76, 0.06 453.34, 0 372.47 M124.16 496.63 C39.72 497.75, 1.99 454.31, 0 372.47 M0 372.47 C1.65 277.01, -0.43 178, 0 124.16 M0 372.47 C-1.52 313.14, -1.19 254.92, 0 124.16 M0 124.16 C-0.64 40.68, 41.07 -1.55, 124.16 0 M0 124.16 C1.13 43.27, 40.54 0.12, 124.16 0" stroke="#35393b" stroke-width="1" fill="none"></path></g><g transform="translate(500.39605712890625 10) rotate(0 105 16)"><text x="0" y="26" font-family="Helvetica, Segoe UI Emoji" font-size="28px" fill="black" text-anchor="start" style="white-space: pre;" direction="ltr">API Environment</text></g><g stroke-linecap="round" transform="translate(221.514404296875 180.8509521484375) rotate(0 234.65057373046875 166.81004333496094)"><path d="M83.41 0 M83.41 0 C143.69 -0.27, 204.49 1.23, 385.9 0 M83.41 0 C166.69 -2.02, 250.46 -2.57, 385.9 0 M385.9 0 C443.2 -1.02, 470.66 29.15, 469.3 83.41 M385.9 0 C442.14 -0.47, 470.83 27.81, 469.3 83.41 M469.3 83.41 C467.77 127.87, 469.03 173.45, 469.3 250.22 M469.3 83.41 C470.28 128.93, 469.31 174, 469.3 250.22 M469.3 250.22 C471.22 306.33, 440.64 332.49, 385.9 333.62 M469.3 250.22 C469.66 303.54, 442.61 332.14, 385.9 333.62 M385.9 333.62 C324.84 333.25, 263.1 332.93, 83.41 333.62 M385.9 333.62 C320.87 334.1, 256.73 334.69, 83.41 333.62 M83.41 333.62 C26.66 333.2, 1.14 306, 0 250.22 M83.41 333.62 C25.9 331.96, 0.84 305.48, 0 250.22 M0 250.22 C1.91 187.28, -1.15 125.23, 0 83.41 M0 250.22 C0.14 190.06, 0.85 128.97, 0 83.41 M0 83.41 C1.13 27.51, 27.53 -0.77, 83.41 0 M0 83.41 C2.18 27.24, 27.54 1.89, 83.41 0" stroke="#0eb1e4" stroke-width="1" fill="none"></path></g><g stroke-linecap="round" transform="translate(735.7333984375 191.23219299316406) rotate(0 137.12615966796875 29.249740600585938)"><path d="M14.62 0 M14.62 0 C100.97 1.41, 188.2 -1.12, 259.63 0 M14.62 0 C107.28 0.99, 201.74 1.82, 259.63 0 M259.63 0 C270.72 -1.45, 274.88 3.42, 274.25 14.62 M259.63 0 C270.39 1.37, 274.28 4.89, 274.25 14.62 M274.25 14.62 C274.36 24.74, 272.86 34.2, 274.25 43.87 M274.25 14.62 C274.65 21.81, 274.11 29.58, 274.25 43.87 M274.25 43.87 C274.52 53.32, 270.17 57.43, 259.63 58.5 M274.25 43.87 C274.43 53.1, 269.03 56.42, 259.63 58.5 M259.63 58.5 C172.71 58.84, 86.1 56.78, 14.62 58.5 M259.63 58.5 C179.07 58.03, 98.39 58.43, 14.62 58.5 M14.62 58.5 C3.33 58.4, -1.31 54.42, 0 43.87 M14.62 58.5 C4.92 56.5, -1.12 55.09, 0 43.87 M0 43.87 C1.7 30.26, 0.58 20.2, 0 14.62 M0 43.87 C-0.25 35.31, -0.15 28.43, 0 14.62 M0 14.62 C1.23 4.11, 4.42 0.63, 14.62 0 M0 14.62 C1.79 6.37, 5.8 2.02, 14.62 0" stroke="#0eb1e4" stroke-width="1" fill="none"></path></g><g transform="translate(745.6961669921875 133.3614171346029) rotate(0 120 16)"><text x="0" y="26" font-family="Helvetica, Segoe UI Emoji" font-size="28px" fill="black" text-anchor="start" style="white-space: pre;" direction="ltr">Other API Products</text></g><g transform="translate(309.6311035156251 133.3614171346029) rotate(0 145.5 16)"><text x="0" y="26" font-family="Helvetica, Segoe UI Emoji" font-size="28px" fill="black" text-anchor="start" style="white-space: pre;" direction="ltr">API Product - Pet Store</text></g><g stroke-linecap="round" transform="translate(735.7333984375 276.73374938964844) rotate(0 137.12615966796875 29.249740600585938)"><path d="M14.62 0 M14.62 0 C109.57 1.53, 205.88 -1.61, 259.63 0 M14.62 0 C76.06 -2.1, 136.04 -1.79, 259.63 0 M259.63 0 C269.84 -1.66, 272.99 3.3, 274.25 14.62 M259.63 0 C269.25 1.17, 274.01 4.31, 274.25 14.62 M274.25 14.62 C274.92 25.97, 274.78 36.96, 274.25 43.87 M274.25 14.62 C274.4 25.5, 274.13 35.16, 274.25 43.87 M274.25 43.87 C274.25 52.91, 268.79 57.53, 259.63 58.5 M274.25 43.87 C274.49 54.09, 269.57 59.5, 259.63 58.5 M259.63 58.5 C192.86 60.27, 125.23 58.77, 14.62 58.5 M259.63 58.5 C184.92 57.73, 109.43 58.55, 14.62 58.5 M14.62 58.5 C6.48 57.76, 1.5 52.11, 0 43.87 M14.62 58.5 C4.9 58.96, -2.29 54.01, 0 43.87 M0 43.87 C-0.9 34.55, -0.58 26.72, 0 14.62 M0 43.87 C1.09 36.51, 1.1 28.92, 0 14.62 M0 14.62 C-0.65 3.01, 5.12 -0.29, 14.62 0 M0 14.62 C-1.42 5.93, 2.6 -1.4, 14.62 0" stroke="#0eb1e4" stroke-width="1" fill="none"></path></g><g stroke-linecap="round" transform="translate(735.7333984375 447.7368621826172) rotate(0 137.12615966796875 29.249740600585938)"><path d="M14.62 0 M14.62 0 C108.34 -0.39, 200.14 -0.99, 259.63 0 M14.62 0 C73.53 -1, 132.42 -1.61, 259.63 0 M259.63 0 C269.77 -1.99, 274.59 5.22, 274.25 14.62 M259.63 0 C271.13 -1.56, 273.48 4.82, 274.25 14.62 M274.25 14.62 C273.35 22.47, 276.32 31.39, 274.25 43.87 M274.25 14.62 C273.34 26.26, 274.13 37.04, 274.25 43.87 M274.25 43.87 C275.17 51.65, 268.16 59.22, 259.63 58.5 M274.25 43.87 C273.88 55.78, 271.17 57.88, 259.63 58.5 M259.63 58.5 C207.37 56.26, 153.46 55.23, 14.62 58.5 M259.63 58.5 C178.58 57.6, 98.83 57.07, 14.62 58.5 M14.62 58.5 C5.66 59.64, -0.71 53.26, 0 43.87 M14.62 58.5 C4.92 57.88, 1.6 54.48, 0 43.87 M0 43.87 C1.16 32.57, 1.27 21.59, 0 14.62 M0 43.87 C0.77 34.28, -0.36 25.42, 0 14.62 M0 14.62 C0.17 5.9, 4.44 0.47, 14.62 0 M0 14.62 C-0.21 6.69, 4.29 -0.21, 14.62 0" stroke="#0eb1e4" stroke-width="1" fill="none"></path></g><g stroke-linecap="round" transform="translate(526.5477905273438 246.10394287109375) rotate(0 50.9312744140625 27.350067138671875)"><path d="M13.15 1.37 L89.07 1.99 L98.31 2.12 L101.45 4.07 L102.23 10.16 L102.96 42.24 L100.96 49.53 L95 53.61 L86.29 56.3 L13 54.33 L4.03 54.37 L0.09 49.67 L-0.31 45.68 L0.6 10.69 L4.43 3.5 L7.87 2.24 L15.35 0.1" stroke="none" stroke-width="0" fill="#0eb1e4"></path><path d="M13.68 0 M13.68 0 C32.6 1.7, 46.85 -0.74, 88.19 0 M13.68 0 C39.36 -0.55, 65.58 0.75, 88.19 0 M88.19 0 C97.16 1.72, 101.26 2.9, 101.86 13.68 M88.19 0 C97.86 -0.63, 100.04 2.29, 101.86 13.68 M101.86 13.68 C101.14 25.09, 101.94 33.03, 101.86 41.03 M101.86 13.68 C100.8 23.91, 101.97 35.85, 101.86 41.03 M101.86 41.03 C101.17 52, 96.76 54.98, 88.19 54.7 M101.86 41.03 C104.04 49.36, 98.77 52.58, 88.19 54.7 M88.19 54.7 C73.38 54.3, 55.77 54.17, 13.68 54.7 M88.19 54.7 C69.23 54.94, 51.77 54.92, 13.68 54.7 M13.68 54.7 C3.53 54.47, 0.41 50.44, 0 41.03 M13.68 54.7 C2.94 56.69, 1.52 50.86, 0 41.03 M0 41.03 C-1.14 28.83, 0.77 17.67, 0 13.68 M0 41.03 C0.29 30.83, 0.12 22.35, 0 13.68 M0 13.68 C-1.33 5.65, 2.97 -0.99, 13.68 0 M0 13.68 C1.13 3.78, 3.56 1.35, 13.68 0" stroke="#0eb1e4" stroke-width="1" fill="none"></path></g><g stroke-linecap="round" transform="translate(399.21661376953125 246.91903686523438) rotate(0 50.9312744140625 27.350067138671875)"><path d="M15.14 -1.65 L87.35 0.22 L97.47 0.33 L101.29 5.8 L102.23 10.3 L100.72 39.6 L100.62 49.39 L97.69 52.32 L86.58 55.8 L13.29 54.73 L7.05 52.52 L3.28 47.71 L-0.32 45.61 L-0.38 10.93 L2.78 1.45 L6.31 2.84 L15.59 -1.6" stroke="none" stroke-width="0" fill="#0eb1e4"></path><path d="M13.68 0 M13.68 0 C44.19 -0.27, 69.04 1.86, 88.19 0 M13.68 0 C38.24 1.06, 60.76 1.03, 88.19 0 M88.19 0 C95.99 -1.88, 100.9 4.13, 101.86 13.68 M88.19 0 C97.22 -1.63, 100.02 2.74, 101.86 13.68 M101.86 13.68 C102.38 22.25, 103.91 33, 101.86 41.03 M101.86 13.68 C102.44 20.22, 101.13 25.66, 101.86 41.03 M101.86 41.03 C100.6 48.43, 97.64 52.99, 88.19 54.7 M101.86 41.03 C102.32 50.33, 95.12 54.19, 88.19 54.7 M88.19 54.7 C61.22 52.39, 33.28 53.65, 13.68 54.7 M88.19 54.7 C68.02 55.3, 49.31 53.99, 13.68 54.7 M13.68 54.7 C2.66 54.09, -0.89 48.7, 0 41.03 M13.68 54.7 C3.56 52.54, -0.79 49.35, 0 41.03 M0 41.03 C0.05 33.36, 0.38 26.79, 0 13.68 M0 41.03 C-0.91 32.92, -0.26 27.14, 0 13.68 M0 13.68 C-1.67 6.47, 6.11 0.53, 13.68 0 M0 13.68 C-1.27 3.8, 3.74 0.38, 13.68 0" stroke="#0eb1e4" stroke-width="1" fill="none"></path></g><g stroke-linecap="round" transform="translate(542.1649169921875 259.72576904296875) rotate(0 34.5810546875 13.233489990234375)"><path d="M5.22 0.3 L66.42 0.31 L68.59 2.05 L68.58 24.66 L67.47 26.06 L64.45 26.26 L4.07 26.7 L-0.32 21.94 L-1.76 8.41 L2.46 0.11 L7.32 1.57" stroke="none" stroke-width="0" fill="white"></path><path d="M6.62 0 M6.62 0 C17.08 0.61, 31.58 1.23, 62.55 0 M6.62 0 C20.37 -0.26, 34.36 0.19, 62.55 0 M62.55 0 C65.21 1.1, 70.93 2.1, 69.16 6.62 M62.55 0 C64.88 -0.46, 67.5 2.05, 69.16 6.62 M69.16 6.62 C67.99 9.99, 70.15 13.12, 69.16 19.85 M69.16 6.62 C68.71 9.79, 68.46 12.86, 69.16 19.85 M69.16 19.85 C68.68 24.13, 66 27.95, 62.55 26.47 M69.16 19.85 C71.24 25.07, 66.85 28.33, 62.55 26.47 M62.55 26.47 C43.7 24.56, 24.09 24.36, 6.62 26.47 M62.55 26.47 C44.85 26.46, 27.05 26.44, 6.62 26.47 M6.62 26.47 C3.77 27.96, -0.69 24.36, 0 19.85 M6.62 26.47 C1.7 28.65, 1.53 22.67, 0 19.85 M0 19.85 C-0.74 17.25, 0.97 14.16, 0 6.62 M0 19.85 C0.01 16.25, 0.14 11.28, 0 6.62 M0 6.62 C-0.29 3.44, 4.16 -1.79, 6.62 0 M0 6.62 C1 4.42, 0.08 1.07, 6.62 0" stroke="white" stroke-width="1" fill="none"></path></g><g transform="translate(548.4727783203125 261.4189453125) rotate(0 29.5 11.5)"><text x="0" y="18" font-family="Helvetica, Segoe UI Emoji" font-size="20px" fill="black" text-anchor="start" style="white-space: pre;" direction="ltr">deploy</text></g><g stroke-linecap="round" transform="translate(427.5489501953125 262.4927062988281) rotate(0 21.520477294921875 12.4359130859375)"><path d="M4.42 -1.9 L38.81 -0.03 L42.52 2.97 L42.46 4.37 L41.52 16.84 L40.67 23.81 L35.25 24.6 L5.57 25.76 L1.18 23.35 L1.83 17.57 L2.06 5.23 L-0.06 3.32 L5.21 -1.88" stroke="none" stroke-width="0" fill="white"></path><path d="M6.22 0 M6.22 0 C15.5 2.16, 27.62 -0.44, 36.82 0 M6.22 0 C17.35 -0.95, 29.5 0.87, 36.82 0 M36.82 0 C42.12 1.43, 44.02 3.17, 43.04 6.22 M36.82 0 C39.64 -0.39, 43.29 3.53, 43.04 6.22 M43.04 6.22 C42.52 9.6, 42.25 12.12, 43.04 18.65 M43.04 6.22 C43.12 9.36, 43.47 13.08, 43.04 18.65 M43.04 18.65 C42.73 20.92, 41.47 26.84, 36.82 24.87 M43.04 18.65 C43.7 20.66, 42.87 23.8, 36.82 24.87 M36.82 24.87 C28.5 26.14, 17.8 25.2, 6.22 24.87 M36.82 24.87 C28.25 25.36, 19.87 25.04, 6.22 24.87 M6.22 24.87 C1.26 24, 0.42 24.11, 0 18.65 M6.22 24.87 C2.23 22.69, 0.21 22.09, 0 18.65 M0 18.65 C0.98 14.92, -0.84 13.7, 0 6.22 M0 18.65 C-0.43 14.79, -0.2 11.55, 0 6.22 M0 6.22 C0.81 0.36, 1.71 1.5, 6.22 0 M0 6.22 C-2.14 3.81, 2.11 0.94, 6.22 0" stroke="white" stroke-width="1" fill="none"></path></g><g transform="translate(433.85687255859375 264.1209411621094) rotate(0 15 11.5)"><text x="0" y="18" font-family="Helvetica, Segoe UI Emoji" font-size="20px" fill="black" text-anchor="start" style="white-space: pre;" direction="ltr">svc</text></g><g transform="translate(472.85821533203125 201.76211547851562) rotate(0 43.5 16)"><text x="0" y="26" font-family="Helvetica, Segoe UI Emoji" font-size="28px" fill="black" text-anchor="start" style="white-space: pre;" direction="ltr">App v1</text></g><g stroke-linecap="round"><g transform="translate(270.6793212890625 235.26202392578125) rotate(0 33.03205108642567 44.04273478190089)" fill-rule="evenodd"><path d="M0 0 L44.04 0 L66.06 22.02 L66.06 88.09 L0 88.09 L0 0" stroke="none" stroke-width="0" fill="#fff" fill-rule="evenodd"></path><path d="M0 0 C15.66 0, 31.32 0, 44.04 0 M0 0 C16.77 0, 33.53 0, 44.04 0 M44.04 0 C51.04 6.99, 58.03 13.99, 66.06 22.02 M44.04 0 C49.29 5.25, 54.54 10.5, 66.06 22.02 M66.06 22.02 C66.06 44.63, 66.06 67.24, 66.06 88.09 M66.06 22.02 C66.06 40.04, 66.06 58.06, 66.06 88.09 M66.06 88.09 C51.84 88.09, 37.61 88.09, 0 88.09 M66.06 88.09 C40.84 88.09, 15.62 88.09, 0 88.09 M0 88.09 C0 66.2, 0 44.31, 0 0 M0 88.09 C0 69.26, 0 50.43, 0 0 M0 0 C0 0, 0 0, 0 0 M0 0 C0 0, 0 0, 0 0" stroke="#0eb1e4" stroke-width="4" fill="none"></path></g></g><g stroke-linecap="round"><g transform="translate(314.72205607096384 235.26202392578125) rotate(0 0 11.010683695475223)"><path d="M0 0 C0 7.26, 0 14.51, 0 22.02 M0 0 C0 7.06, 0 14.12, 0 22.02" stroke="#0eb1e4" stroke-width="4" fill="none"></path></g></g><g stroke-linecap="round"><g transform="translate(314.72205607096384 257.2833913167324) rotate(0 11.010683695475223 0)"><path d="M0 0 C6.64 0, 13.27 0, 22.02 0 M0 0 C6.47 0, 12.93 0, 22.02 0" stroke="#0eb1e4" stroke-width="4" fill="none"></path></g></g><g stroke-linecap="round" transform="translate(270.6793212890625 235.26202392578125) rotate(0 33.03205108642564 44.04273478190083)"><path d="M0 0 C23.75 0, 47.5 0, 66.06 0 M0 0 C18.14 0, 36.28 0, 66.06 0 M66.06 0 C66.06 22.93, 66.06 45.86, 66.06 88.09 M66.06 0 C66.06 22.09, 66.06 44.17, 66.06 88.09 M66.06 88.09 C43.53 88.09, 21 88.09, 0 88.09 M66.06 88.09 C40.15 88.09, 14.24 88.09, 0 88.09 M0 88.09 C0 63.88, 0 39.67, 0 0 M0 88.09 C0 56.89, 0 25.69, 0 0" stroke="#0eb1e4" stroke-width="4" fill="none"></path></g><g transform="translate(284.5692138671875 263.0709228515625) rotate(0 18 23)"><text x="18" y="18" font-family="Helvetica, Segoe UI Emoji" font-size="20px" fill="black" text-anchor="middle" style="white-space: pre;" direction="ltr">API</text><text x="18" y="41" font-family="Helvetica, Segoe UI Emoji" font-size="20px" fill="black" text-anchor="middle" style="white-space: pre;" direction="ltr">Doc</text></g><g stroke-linecap="round"><g transform="translate(395.99658203125 275.16070556640625) rotate(0 -26.915909483516543 2.5638529794849774)"><path d="M-0.22 0.25 C-8.93 0.83, -44.01 3.74, -52.72 4.21 M-1.79 -0.66 C-10.62 0.07, -45.07 5.03, -53.62 5.79" stroke="#0eb1e4" stroke-width="1" fill="none"></path></g><g transform="translate(395.99658203125 275.16070556640625) rotate(0 -26.915909483516543 2.5638529794849774)"><path d="M-53.99 6.96 L-42.02 -0.25 L-40.84 11.77 L-52.84 4.92" stroke="none" stroke-width="0" fill="#0eb1e4" fill-rule="evenodd"></path><path d="M-53.3 5.91 C-50.2 4.15, -48.19 2.38, -40.79 -1.88 M-53.36 6.16 C-48.71 3.26, -44.77 0.83, -40.94 -1.77 M-41.56 -2.83 C-41.21 2.7, -39.11 6.36, -39.68 10.08 M-40.66 -2.72 C-40.57 0.56, -40.67 4.44, -38.87 10.65 M-38.37 9.15 C-42.33 8.75, -45.55 8.01, -52.5 5.42 M-40.11 10.16 C-44.16 9.44, -49.31 7.93, -53.17 5.89 M-53.62 5.79 C-53.62 5.79, -53.62 5.79, -53.62 5.79 M-53.62 5.79 C-53.62 5.79, -53.62 5.79, -53.62 5.79" stroke="#0eb1e4" stroke-width="1" fill="none"></path></g></g><g stroke-linecap="round" transform="translate(530.0656433105469 400.5641530354819) rotate(0 50.9312744140625 27.350067138671875)"><path d="M14.74 0.75 L88.38 1.72 L97 3.7 L98.41 5.98 L101.73 12.07 L103.13 42.83 L98.64 49.93 L94.99 54.5 L86.97 56.57 L12.3 55.44 L5.81 54.29 L0.86 50.43 L-0.27 42.6 L-0.54 11.21 L4.8 3.59 L7.78 0.5 L12.82 1.45" stroke="none" stroke-width="0" fill="#e98d5e"></path><path d="M13.68 0 M13.68 0 C39.98 0.84, 62.93 1.19, 88.19 0 M13.68 0 C31.88 0.15, 51.43 0.81, 88.19 0 M88.19 0 C96.31 0.16, 101.9 4.22, 101.86 13.68 M88.19 0 C98.01 0.9, 101.33 3.16, 101.86 13.68 M101.86 13.68 C101.82 24.06, 102 33.83, 101.86 41.03 M101.86 13.68 C101.11 23.82, 100.99 35.91, 101.86 41.03 M101.86 41.03 C101.23 49.53, 98.94 52.79, 88.19 54.7 M101.86 41.03 C103.61 49.64, 95.03 56.82, 88.19 54.7 M88.19 54.7 C61.69 53.39, 30.79 54.88, 13.68 54.7 M88.19 54.7 C69.37 55.45, 52.39 53.81, 13.68 54.7 M13.68 54.7 C4.46 54.92, -0.97 48.33, 0 41.03 M13.68 54.7 C4.55 56.55, 1.36 49.05, 0 41.03 M0 41.03 C0.49 33.55, 0.42 25.17, 0 13.68 M0 41.03 C-0.05 32.32, -0.96 21.49, 0 13.68 M0 13.68 C0.68 3.9, 5.82 0.92, 13.68 0 M0 13.68 C-1.02 4.61, 5.92 1.94, 13.68 0" stroke="#e98d5e" stroke-width="1" fill="none"></path></g><g stroke-linecap="round" transform="translate(402.6695251464844 401.37924702962255) rotate(0 50.9312744140625 27.350067138671875)"><path d="M14.42 0.2 L89.91 0.48 L98.29 0.4 L100.58 5.43 L103.25 11.74 L103.67 39.72 L100.51 47.83 L98.24 51.56 L90.05 53.33 L14.42 55.16 L6.85 51.71 L2.99 48.88 L-1.41 43.48 L0.95 11.85 L3.59 3.51 L7.33 0 L15.13 0.62" stroke="none" stroke-width="0" fill="#e98d5e"></path><path d="M13.68 0 M13.68 0 C42.3 -0.71, 70.61 -1.67, 88.19 0 M13.68 0 C31.51 1.1, 49.78 -0.35, 88.19 0 M88.19 0 C97.47 0.03, 101.52 5.17, 101.86 13.68 M88.19 0 C98.21 -0.53, 100.47 6.23, 101.86 13.68 M101.86 13.68 C102.27 21.97, 101.85 31.8, 101.86 41.03 M101.86 13.68 C101.11 20.03, 102.5 27.6, 101.86 41.03 M101.86 41.03 C101.25 51.78, 95.39 56.22, 88.19 54.7 M101.86 41.03 C101.36 47.86, 99.42 56.47, 88.19 54.7 M88.19 54.7 C59.04 54.07, 32.93 54.13, 13.68 54.7 M88.19 54.7 C66.77 54.38, 42.73 54.06, 13.68 54.7 M13.68 54.7 C4.77 53.73, -1.81 50.14, 0 41.03 M13.68 54.7 C6.4 56.06, -1.09 50.08, 0 41.03 M0 41.03 C0.48 34.41, 0.22 28.24, 0 13.68 M0 41.03 C0.65 31, -0.58 23.05, 0 13.68 M0 13.68 C-0.66 5.82, 5.48 -0.89, 13.68 0 M0 13.68 C0.05 5.92, 6.5 -1.16, 13.68 0" stroke="#e98d5e" stroke-width="1" fill="none"></path></g><g stroke-linecap="round" transform="translate(545.7477111816406 414.1859792073569) rotate(0 34.5810546875 13.233489990234375)"><path d="M6.81 1.72 L65.92 2.19 L67.22 4.36 L68.83 24.35 L68.78 26.62 L61.24 27.04 L2.19 27.77 L-0.8 24.61 L-1.37 7.36 L2.12 3.16 L5.55 1.07" stroke="none" stroke-width="0" fill="white"></path><path d="M6.62 0 M6.62 0 C22.79 1.59, 37.65 0.3, 62.55 0 M6.62 0 C22.71 0.35, 37.95 0.41, 62.55 0 M62.55 0 C67.63 -0.1, 70.19 1.14, 69.16 6.62 M62.55 0 C65.49 0.28, 68.71 2.75, 69.16 6.62 M69.16 6.62 C69.39 11.88, 69.06 17.5, 69.16 19.85 M69.16 6.62 C69.61 11.09, 69.64 15.58, 69.16 19.85 M69.16 19.85 C69.36 24.41, 66.74 28.3, 62.55 26.47 M69.16 19.85 C68.25 22.71, 65.46 25.16, 62.55 26.47 M62.55 26.47 C49.44 27.93, 35.65 27.81, 6.62 26.47 M62.55 26.47 C47.75 27.69, 31.71 27.77, 6.62 26.47 M6.62 26.47 C0.68 25.24, -0.04 23.1, 0 19.85 M6.62 26.47 C2.22 25.73, -1.81 26.54, 0 19.85 M0 19.85 C0.23 14.89, -1.11 11.21, 0 6.62 M0 19.85 C-0.1 14.5, 0.36 9.91, 0 6.62 M0 6.62 C0.66 2.5, 2.61 1.03, 6.62 0 M0 6.62 C0.8 4.42, 2.32 2.1, 6.62 0" stroke="white" stroke-width="1" fill="none"></path></g><g transform="translate(552.0555725097656 415.8791554768882) rotate(0 29.5 11.5)"><text x="0" y="18" font-family="Helvetica, Segoe UI Emoji" font-size="20px" fill="black" text-anchor="start" style="white-space: pre;" direction="ltr">deploy</text></g><g stroke-linecap="round" transform="translate(431.1317443847656 416.9529164632163) rotate(0 21.520477294921875 12.4359130859375)"><path d="M6.7 1.77 L35.3 0.64 L41.57 3.16 L44.31 8.02 L41.74 19.23 L39.96 25.04 L35.61 26.74 L4.84 25.61 L2.02 24.83 L-1.07 19.72 L-0.09 1.87 L0.81 2.29 L7.6 0.17" stroke="none" stroke-width="0" fill="white"></path><path d="M6.22 0 M6.22 0 C16.99 0.75, 26.36 -0.31, 36.82 0 M6.22 0 C18.4 -0.52, 28.93 0.14, 36.82 0 M36.82 0 C40.57 0.47, 44.95 3.87, 43.04 6.22 M36.82 0 C39.83 0.19, 43.08 1.68, 43.04 6.22 M43.04 6.22 C42.33 11.23, 43.06 15.4, 43.04 18.65 M43.04 6.22 C42.99 10.5, 42.81 13.22, 43.04 18.65 M43.04 18.65 C41.74 21.66, 39.44 26.51, 36.82 24.87 M43.04 18.65 C42.32 22.09, 42.85 22.67, 36.82 24.87 M36.82 24.87 C27.16 26.11, 15.22 25.16, 6.22 24.87 M36.82 24.87 C25.2 24.1, 13.62 24.36, 6.22 24.87 M6.22 24.87 C0.5 26.85, 0.53 21.5, 0 18.65 M6.22 24.87 C1.96 25.12, -1.12 20.72, 0 18.65 M0 18.65 C-0.69 14.89, -0.69 12.01, 0 6.22 M0 18.65 C0.08 15.02, 0.18 11.34, 0 6.22 M0 6.22 C0.1 3.9, 0.34 -0.62, 6.22 0 M0 6.22 C0.78 1.32, 3.52 1.06, 6.22 0" stroke="white" stroke-width="1" fill="none"></path></g><g transform="translate(437.4396667480469 418.64609273274755) rotate(0 15 11.5)"><text x="0" y="18" font-family="Helvetica, Segoe UI Emoji" font-size="20px" fill="black" text-anchor="start" style="white-space: pre;" direction="ltr">svc</text></g><g transform="translate(476.4410095214844 356.2223256429038) rotate(0 43.5 16)"><text x="0" y="26" font-family="Helvetica, Segoe UI Emoji" font-size="28px" fill="black" text-anchor="start" style="white-space: pre;" direction="ltr">App v2</text></g><g stroke-linecap="round"><g transform="translate(274.2621154785156 389.7222340901694) rotate(0 33.03205108642567 44.04273478190089)" fill-rule="evenodd"><path d="M0 0 L44.04 0 L66.06 22.02 L66.06 88.09 L0 88.09 L0 0" stroke="none" stroke-width="0" fill="#fff" fill-rule="evenodd"></path><path d="M0 0 C14.62 0, 29.24 0, 44.04 0 M0 0 C10.19 0, 20.37 0, 44.04 0 M44.04 0 C50.83 6.79, 57.62 13.58, 66.06 22.02 M44.04 0 C51.78 7.74, 59.52 15.47, 66.06 22.02 M66.06 22.02 C66.06 40.71, 66.06 59.41, 66.06 88.09 M66.06 22.02 C66.06 41.12, 66.06 60.21, 66.06 88.09 M66.06 88.09 C52.57 88.09, 39.07 88.09, 0 88.09 M66.06 88.09 C46.37 88.09, 26.67 88.09, 0 88.09 M0 88.09 C0 69.63, 0 51.18, 0 0 M0 88.09 C0 59.88, 0 31.67, 0 0 M0 0 C0 0, 0 0, 0 0 M0 0 C0 0, 0 0, 0 0" stroke="#e98d5e" stroke-width="4" fill="none"></path></g></g><g stroke-linecap="round"><g transform="translate(318.30485026041697 389.7222340901694) rotate(0 0 11.010683695475223)"><path d="M0 0 C0 6.7, 0 13.4, 0 22.02 M0 0 C0 7.42, 0 14.85, 0 22.02" stroke="#e98d5e" stroke-width="4" fill="none"></path></g></g><g stroke-linecap="round"><g transform="translate(318.30485026041697 411.74360148112055) rotate(0 11.010683695475223 0)"><path d="M0 0 C8.37 0, 16.74 0, 22.02 0 M0 0 C7.12 0, 14.24 0, 22.02 0" stroke="#e98d5e" stroke-width="4" fill="none"></path></g></g><g stroke-linecap="round" transform="translate(274.2621154785156 389.7222340901694) rotate(0 33.03205108642564 44.04273478190083)"><path d="M0 0 C24.01 0, 48.01 0, 66.06 0 M0 0 C24.8 0, 49.61 0, 66.06 0 M66.06 0 C66.06 22.68, 66.06 45.35, 66.06 88.09 M66.06 0 C66.06 27.49, 66.06 54.97, 66.06 88.09 M66.06 88.09 C47.77 88.09, 29.47 88.09, 0 88.09 M66.06 88.09 C50.69 88.09, 35.31 88.09, 0 88.09 M0 88.09 C0 70.38, 0 52.68, 0 0 M0 88.09 C0 64.48, 0 40.87, 0 0" stroke="#e98d5e" stroke-width="4" fill="none"></path></g><g transform="translate(288.1520080566406 417.5311330159507) rotate(0 18 23)"><text x="18" y="18" font-family="Helvetica, Segoe UI Emoji" font-size="20px" fill="black" text-anchor="middle" style="white-space: pre;" direction="ltr">API</text><text x="18" y="41" font-family="Helvetica, Segoe UI Emoji" font-size="20px" fill="black" text-anchor="middle" style="white-space: pre;" direction="ltr">Doc</text></g><g stroke-linecap="round"><g transform="translate(399.4494934082031 429.5603444485055) rotate(0 -26.309323056098094 2.8937394346480687)"><path d="M-0.92 1.03 C-9.69 1.85, -44.65 4.67, -53.42 5.26 M0.8 0.53 C-7.52 1.01, -42.45 3.4, -51.09 3.72" stroke="#e98d5e" stroke-width="1" fill="none"></path></g><g transform="translate(399.4494934082031 429.5603444485055) rotate(0 -26.309323056098094 2.8937394346480687)"><path d="M-51.15 2.77 L-36.55 -3 L-36.51 9.6 L-50.69 4.75" stroke="none" stroke-width="0" fill="#e98d5e" fill-rule="evenodd"></path><path d="M-49.8 2.81 C-46.61 1.13, -44.34 0.85, -36.73 -4.15 M-51.37 4 C-45.88 1.39, -41.69 -1.31, -38.19 -2.81 M-36.83 -2.93 C-37.6 1.49, -37.98 4.22, -37.02 9.05 M-38.18 -3.3 C-37.51 0.63, -37.1 5.08, -37.31 8.92 M-37.19 9.46 C-42.24 7.17, -46.17 4.66, -52.1 2.75 M-37.4 9.07 C-39.9 7.34, -43.33 6.54, -51.83 4.41 M-51.09 3.72 C-51.09 3.72, -51.09 3.72, -51.09 3.72 M-51.09 3.72 C-51.09 3.72, -51.09 3.72, -51.09 3.72" stroke="#e98d5e" stroke-width="1" fill="none"></path></g></g><g stroke-linecap="round" transform="translate(735.7333984375 362.2353057861328) rotate(0 137.12615966796875 29.249740600585938)"><path d="M14.62 0 M14.62 0 C63.83 -2.36, 114.58 -1.07, 259.63 0 M14.62 0 C74.26 -0.99, 133.73 -0.02, 259.63 0 M259.63 0 C270.71 -1.13, 272.3 3.82, 274.25 14.62 M259.63 0 C270.98 -2.27, 272.24 3.9, 274.25 14.62 M274.25 14.62 C273.22 21.53, 275.41 27.52, 274.25 43.87 M274.25 14.62 C274.3 23.32, 274.1 31.75, 274.25 43.87 M274.25 43.87 C273.9 53.5, 267.44 59.8, 259.63 58.5 M274.25 43.87 C274.41 51.49, 268.84 57.57, 259.63 58.5 M259.63 58.5 C182.01 59.32, 104.89 58.89, 14.62 58.5 M259.63 58.5 C198.3 59.36, 136.49 59.21, 14.62 58.5 M14.62 58.5 C5.1 58.68, -0.95 53.75, 0 43.87 M14.62 58.5 C4.95 59.9, -0.57 52.69, 0 43.87 M0 43.87 C1.5 34.19, 0.61 23.74, 0 14.62 M0 43.87 C0.53 32.78, 0.4 21.76, 0 14.62 M0 14.62 C0.65 6.85, 3.7 -0.39, 14.62 0 M0 14.62 C-0.94 5.48, 2.94 -1.62, 14.62 0" stroke="#0eb1e4" stroke-width="1" fill="none"></path></g><g transform="translate(815.1961669921875 288.889872233073) rotate(0 50.5 16)"><text x="0" y="26" font-family="Helvetica, Segoe UI Emoji" font-size="28px" fill="black" text-anchor="start" style="white-space: pre;" direction="ltr">Delivery</text></g><g transform="translate(816.6961669921875 373.863271077474) rotate(0 49 16)"><text x="0" y="26" font-family="Helvetica, Segoe UI Emoji" font-size="28px" fill="black" text-anchor="start" style="white-space: pre;" direction="ltr">Support</text></g><g transform="translate(806.6961669921875 203.91647338867188) rotate(0 59 16)"><text x="0" y="26" font-family="Helvetica, Segoe UI Emoji" font-size="28px" fill="black" text-anchor="start" style="white-space: pre;" direction="ltr">Checkout</text></g><g transform="translate(807.1961669921875 458.836669921875) rotate(0 58.5 16)"><text x="0" y="26" font-family="Helvetica, Segoe UI Emoji" font-size="28px" fill="black" text-anchor="start" style="white-space: pre;" direction="ltr">Suppliers</text></g><g stroke-linecap="round" transform="translate(73.78070086021916 235.30860416981022) rotate(0 24.705641672639644 24.872538248697936)"><path d="M13.02 -0.38 L39.24 -0.32 L44.88 2.5 L46.72 5.78 L48.45 13.32 L47.5 40.09 L49.25 44.19 L43.44 46.65 L38.51 49.12 L9.91 49.31 L3.84 47.65 L0.37 44 L-0.51 36.46 L-0.47 7.15 L3.75 1.08 L10.43 0.37" stroke="none" stroke-width="0" fill="#35393b"></path><path d="M12.35 0 M12.35 0 C18.06 1.19, 21.19 -1.55, 37.06 0 M12.35 0 C18.21 -0.74, 24.49 -0.37, 37.06 0 M37.06 0 C43.61 -1.58, 51.09 5.81, 49.41 12.35 M37.06 0 C43.61 -1.73, 48.68 2.76, 49.41 12.35 M49.41 12.35 C48.25 18.33, 48.84 20.96, 49.41 37.39 M49.41 12.35 C48.54 20.72, 48.69 28.46, 49.41 37.39 M49.41 37.39 C47.73 44.45, 46.45 50.02, 37.06 49.75 M49.41 37.39 C51.1 45.88, 47.53 49.72, 37.06 49.75 M37.06 49.75 C30.9 49, 28.36 51.78, 12.35 49.75 M37.06 49.75 C27.17 49.32, 17.43 49.62, 12.35 49.75 M12.35 49.75 C3.9 50.66, -1.63 45.59, 0 37.39 M12.35 49.75 C6.1 48.59, -1.65 47.76, 0 37.39 M0 37.39 C0.77 28.12, -0.9 17.65, 0 12.35 M0 37.39 C0 29.19, -0.71 18.98, 0 12.35 M0 12.35 C-0.77 5.32, 4.13 0.36, 12.35 0 M0 12.35 C-2.15 2.49, 4.25 -0.66, 12.35 0" stroke="#35393b" stroke-width="1" fill="none"></path></g><g stroke-linecap="round" transform="translate(80.1416647024443 240.08787431548126) rotate(0 17.18000064600784 20.000597766994247)"><path d="M8.21 -0.72 L29.01 0.83 L34.59 3.87 L35.32 30.45 L34.79 33.45 L29.33 41.04 L4.1 38.32 L-0.82 36.62 L-0.09 5.29 L4.59 -0.45 L8.23 -1.37" stroke="none" stroke-width="0" fill="white"></path><path d="M8.59 0 M8.59 0 C11.89 0.25, 16.39 -0.48, 25.77 0 M8.59 0 C11.57 0, 15.8 0.65, 25.77 0 M25.77 0 C29.87 -1.6, 33.47 3.13, 34.36 8.59 M25.77 0 C31.21 -1.04, 32.59 1.74, 34.36 8.59 M34.36 8.59 C35.85 16.23, 32.7 18.98, 34.36 31.41 M34.36 8.59 C34.17 14.74, 33.65 21.31, 34.36 31.41 M34.36 31.41 C33.8 35.66, 32.2 39.24, 25.77 40 M34.36 31.41 C33.95 35.35, 31.44 38.57, 25.77 40 M25.77 40 C22.77 40.14, 19.04 40.09, 8.59 40 M25.77 40 C19.66 40.05, 11.64 39.49, 8.59 40 M8.59 40 C4.25 41.97, 1.78 35.79, 0 31.41 M8.59 40 C3.12 39.36, -1.04 36.21, 0 31.41 M0 31.41 C-1.61 24.88, 1.75 17.42, 0 8.59 M0 31.41 C0.16 26.72, 0.22 21.26, 0 8.59 M0 8.59 C-0.8 2.75, 3.98 0.1, 8.59 0 M0 8.59 C-1.04 2.89, 4.49 -1.6, 8.59 0" stroke="#35393b" stroke-width="1" fill="none"></path></g><g stroke-linecap="round" transform="translate(85.92501344046644 255.72936744095068) rotate(0 2.3648929928270093 11.795224324124774)"><path d="M-0.22 0.92 L3.1 -0.04 L6.45 22.59 L-1.43 25.45" stroke="none" stroke-width="0" fill="#35393b"></path><path d="M0.18 -0.23 C1.48 -0.23, 2.73 -0.41, 4.68 0.37 M0.17 -0.07 C1.3 0, 2.38 -0.01, 4.57 -0.11 M4.93 -1.07 C3.97 4.55, 4.99 11.17, 3.52 23.24 M3.93 -0.44 C5 7.52, 4.41 14.53, 4.24 23.19 M5.13 23.24 C3.35 23.48, 2.41 23.16, -0.03 23.6 M4.55 23.67 C3.49 23.54, 2.25 23.57, -0.15 23.43 M0.27 25.06 C0.36 20.45, 0.12 11.49, 1.67 0.49 M0.99 24.48 C-0.58 17.94, -0.18 11.61, -0.4 -0.15" stroke="#35393b" stroke-width="1" fill="none"></path></g><g stroke-linecap="round" transform="translate(94.66468728123635 248.1491653080152) rotate(0 2.420996462560936 15.466884732265953)"><path d="M0.92 -1.63 L4.8 1.72 L3.84 29.5 L1.86 32.77" stroke="none" stroke-width="0" fill="#35393b"></path><path d="M-0.23 0.23 C1.09 0.22, 2.24 -0.07, 5.22 -0.18 M-0.08 0.06 C1.15 -0.15, 2.31 -0.2, 4.73 -0.06 M3.77 -0.65 C2.73 8.21, 2.88 14.47, 4.49 31.42 M4.4 0.13 C4.47 10.61, 3.82 21.63, 4.45 30.09 M4.49 30.57 C3.62 30.69, 2.23 30.95, 0.01 30.66 M4.93 30.84 C3.12 30.71, 1.48 30.75, -0.16 30.73 M1.47 31.15 C1.77 23.45, -2.09 17.68, 0.49 -1.11 M0.89 30.26 C-0.1 22.63, -0.67 14.48, -0.15 -0.11" stroke="#35393b" stroke-width="1" fill="none"></path></g><g stroke-linecap="round" transform="translate(103.2796867448206 260.2301124573819) rotate(0 2.1903488647659515 9.544851815909283)"><path d="M-1.63 -0.04 L6.1 -1.01 L2.95 20.95 L1.84 19.82" stroke="none" stroke-width="0" fill="#35393b"></path><path d="M0.21 -0.21 C1.59 -0.36, 2.72 0.37, 4.22 -0.25 M0.05 -0.03 C0.91 -0.03, 1.88 -0.09, 4.32 -0.1 M3.76 -1.84 C4.75 2.86, 3.24 8.75, 4.84 20.19 M4.51 -0.12 C3.8 3.44, 3.76 7.98, 3.58 18.33 M4.05 18.95 C2.44 18.63, 0.99 19.07, -0.25 19.29 M4.3 19.05 C3.02 19.1, 1.86 18.96, -0.18 18.96 M0.21 20.95 C-0.05 10.43, 1.57 5.9, -1.06 -0.77 M-0.64 19.2 C-0.45 11.61, -0.57 4.84, -0.1 0.44" stroke="#35393b" stroke-width="1" fill="none"></path></g><g transform="translate(1046.8387247721353 325.7402648925781) rotate(89.99999999999994 79.5 16)"><text x="0" y="26" font-family="Helvetica, Segoe UI Emoji" font-size="28px" fill="black" text-anchor="start" style="white-space: pre;" direction="ltr">Usage Plans</text></g><g stroke-linecap="round" transform="translate(1042.7690694276207 190.83504231770826) rotate(0 24.705641672639672 24.872538248697936)"><path d="M12.34 0.94 L40.16 0.28 L43.7 0.08 L46.57 2.91 L48.42 12.67 L48.14 41.24 L46.42 46.1 L46.54 47.71 L37.12 48.86 L8.76 47.72 L6.16 46.12 L3.66 43.94 L-0.38 35.44 L-0.78 8.74 L5.43 2.33 L13.5 0.85" stroke="none" stroke-width="0" fill="#35393b"></path><path d="M12.35 0 M12.35 0 C20 0.79, 30.39 0.48, 37.06 0 M12.35 0 C20.18 0.23, 26.36 -0.06, 37.06 0 M37.06 0 C44.58 -1.08, 49.03 5.33, 49.41 12.35 M37.06 0 C46.48 -1.71, 50.93 2.29, 49.41 12.35 M49.41 12.35 C51.2 19.41, 48.09 24.52, 49.41 37.39 M49.41 12.35 C48.96 19.67, 50.24 25.58, 49.41 37.39 M49.41 37.39 C48.18 43.88, 44.84 47.75, 37.06 49.75 M49.41 37.39 C48.8 44.52, 45.64 49.7, 37.06 49.75 M37.06 49.75 C31.98 49.74, 26.7 49.48, 12.35 49.75 M37.06 49.75 C29.5 50.22, 20.66 48.67, 12.35 49.75 M12.35 49.75 C4.95 48.5, 0.02 43.72, 0 37.39 M12.35 49.75 C3.91 51.15, 1.31 47.47, 0 37.39 M0 37.39 C1.42 29.82, -1.46 22.75, 0 12.35 M0 37.39 C-0.55 31.28, -1 26.24, 0 12.35 M0 12.35 C0 2.94, 2.38 -1.65, 12.35 0 M0 12.35 C-1.06 4.57, 3.76 -1.09, 12.35 0" stroke="#35393b" stroke-width="1" fill="none"></path></g><g stroke-linecap="round" transform="translate(1049.1300332698459 195.6143124633793) rotate(0 17.180000646007784 20.000597766994247)"><path d="M9.53 0.21 L29.62 -0.35 L32.16 3.72 L32.44 30.42 L34.14 34.09 L30.49 38.21 L6.01 41.42 L0.24 35.23 L-0.35 4.13 L3 1.87 L6.7 1.92" stroke="none" stroke-width="0" fill="white"></path><path d="M8.59 0 M8.59 0 C11.56 1.71, 17.73 0.68, 25.77 0 M8.59 0 C14.43 -0.07, 20.62 0.28, 25.77 0 M25.77 0 C33.08 0.48, 33.91 3.53, 34.36 8.59 M25.77 0 C29.93 2.25, 34.51 3.57, 34.36 8.59 M34.36 8.59 C33.9 16.12, 35.31 19.74, 34.36 31.41 M34.36 8.59 C34.34 16.94, 35.05 25.43, 34.36 31.41 M34.36 31.41 C33 35.76, 31.16 41.21, 25.77 40 M34.36 31.41 C32.72 35.75, 32.02 41.55, 25.77 40 M25.77 40 C21.87 38.14, 18.29 39.02, 8.59 40 M25.77 40 C19.77 39.77, 15.13 39.88, 8.59 40 M8.59 40 C3.56 39.77, 0.82 38.12, 0 31.41 M8.59 40 C1.43 42.01, 1.44 38.19, 0 31.41 M0 31.41 C-0.08 24.76, -0.28 23.15, 0 8.59 M0 31.41 C0.49 23.17, 0.61 14.54, 0 8.59 M0 8.59 C-1.29 1.04, 1.62 0.73, 8.59 0 M0 8.59 C1.95 1.81, 2.52 -2.09, 8.59 0" stroke="#35393b" stroke-width="1" fill="none"></path></g><g stroke-linecap="round" transform="translate(1054.913382007868 211.25580558884872) rotate(0 2.364892992826981 11.795224324124774)"><path d="M0.84 -1.24 L4.74 -1.91 L4.55 24.81 L1.14 25.2" stroke="none" stroke-width="0" fill="#35393b"></path><path d="M-0.39 -0.26 C1.01 -0.21, 3.01 -0.23, 4.96 -0.3 M0.01 -0.11 C1.62 -0.21, 3.55 -0.22, 4.96 -0.12 M6.52 0.6 C5.1 7.77, 5.35 13.9, 4.05 23.55 M4.97 -0.23 C5.16 5.71, 5.8 12.85, 5.04 23.36 M5.02 23.83 C3.13 23.89, 1.86 23.44, 0.08 23.59 M4.57 23.55 C3.04 23.39, 0.92 23.61, 0.16 23.36 M-2 23.06 C-0.76 18.27, 0.17 10.82, -1.37 -0.23 M-0.12 24 C0.49 15.36, 0.87 8.99, 0.46 -0.92" stroke="#35393b" stroke-width="1" fill="none"></path></g><g stroke-linecap="round" transform="translate(1063.653055848638 203.67560345591323) rotate(0 2.4209964625609928 15.466884732265953)"><path d="M-1.24 0.02 L2.93 -0.18 L6.07 32.07 L1.61 30.06" stroke="none" stroke-width="0" fill="#35393b"></path><path d="M-0.27 -0.46 C1.23 0.12, 2.69 0.27, 4.54 0.29 M-0.11 -0.08 C1.7 0.16, 3.62 0.23, 4.72 -0.05 M5.45 0.6 C5.75 7.11, 5.26 11.83, 4.8 30.35 M4.61 0.33 C4.41 11.47, 5.15 21.3, 4.61 30.57 M5.09 30.57 C3.97 30.58, 2.31 31.04, 0 31.36 M4.8 31.08 C3.15 30.75, 1.85 31.06, -0.23 30.78 M-0.53 29.97 C0.37 24.32, -1.45 16.41, -0.23 0.45 M0.41 31.43 C-0.73 22.5, 0.52 12.77, -0.92 0.42" stroke="#35393b" stroke-width="1" fill="none"></path></g><g stroke-linecap="round" transform="translate(1072.2680553122223 215.75655060527993) rotate(0 2.1903488647659515 9.544851815909283)"><path d="M0.02 -1.91 L4.2 1.22 L5.52 20.7 L-0.88 20.45" stroke="none" stroke-width="0" fill="#35393b"></path><path d="M-0.42 -0.22 C1.19 -0.21, 2.45 -0.25, 4.64 0.43 M-0.08 -0.2 C1.4 -0.19, 2.71 -0.09, 4.34 -0.21 M4.95 1.09 C5.37 4.87, 3.9 8.45, 3.83 19.84 M4.7 -0.65 C5.36 7.3, 4.72 14.26, 4.04 18.58 M4.05 19.38 C2.8 18.98, 1.99 19.11, 0.38 19.15 M4.51 18.93 C3.23 19.13, 2.5 18.87, -0.13 18.9 M-0.92 19.38 C0.15 12.34, -1.12 8.28, 0.43 0.02 M0.47 18.5 C0.86 13.29, 0.46 5.42, 0.4 -0.59" stroke="#35393b" stroke-width="1" fill="none"></path></g><g stroke-linecap="round" transform="translate(1042.7690694276207 277.35828993055543) rotate(0 24.705641672639672 24.872538248697936)"><path d="M14.11 -0.33 L40.63 -0.48 L44.18 3.09 L46.63 5.56 L49.53 11.53 L48.92 39.99 L49.52 44.3 L45.17 48.04 L37.16 50.6 L10.56 50.75 L5.9 49.15 L2.36 45.23 L-0.21 35.84 L1.11 5.11 L2.93 3.35 L13.64 1.18" stroke="none" stroke-width="0" fill="#35393b"></path><path d="M12.35 0 M12.35 0 C17.68 -0.52, 22.36 -1.51, 37.06 0 M12.35 0 C21.5 0.13, 29.22 -0.55, 37.06 0 M37.06 0 C46.11 -0.39, 49.77 5.53, 49.41 12.35 M37.06 0 C43.11 -1.19, 48.1 2.44, 49.41 12.35 M49.41 12.35 C51.43 20.57, 48.91 27.77, 49.41 37.39 M49.41 12.35 C49.06 22.14, 50.25 31.74, 49.41 37.39 M49.41 37.39 C49.87 45.45, 45.48 49.32, 37.06 49.75 M49.41 37.39 C50.79 47.7, 46.2 49.57, 37.06 49.75 M37.06 49.75 C27.13 48.7, 18.95 49.25, 12.35 49.75 M37.06 49.75 C28.17 49.57, 19.19 49.86, 12.35 49.75 M12.35 49.75 C6.09 48.41, -1.82 46.99, 0 37.39 M12.35 49.75 C5.09 48.65, 1.74 44.85, 0 37.39 M0 37.39 C0.62 30.86, -0.2 19.21, 0 12.35 M0 37.39 C-0.19 27.62, 0.29 19.14, 0 12.35 M0 12.35 C1.53 2.94, 3.09 -1.67, 12.35 0 M0 12.35 C0.04 4.3, 2.23 -0.72, 12.35 0" stroke="#35393b" stroke-width="1" fill="none"></path></g><g stroke-linecap="round" transform="translate(1049.1300332698456 282.13756007622646) rotate(0 17.180000646007784 20.000597766994247)"><path d="M8.26 0.67 L28.86 0.13 L35.17 3.79 L35.1 31.53 L33 34.87 L29.23 41.31 L4.22 40.05 L0.57 35.27 L1.4 5.94 L6.03 1.61 L9.74 0.62" stroke="none" stroke-width="0" fill="white"></path><path d="M8.59 0 M8.59 0 C14.3 -1.45, 17.81 1.52, 25.77 0 M8.59 0 C14.92 -0.6, 20.88 -0.2, 25.77 0 M25.77 0 C29.76 -1.72, 35.1 0.95, 34.36 8.59 M25.77 0 C32.35 1.87, 34.87 3.34, 34.36 8.59 M34.36 8.59 C34.82 15.8, 32.55 19.15, 34.36 31.41 M34.36 8.59 C34.64 14.97, 35.15 20.29, 34.36 31.41 M34.36 31.41 C33.75 38.57, 33.13 38.81, 25.77 40 M34.36 31.41 C32.26 36.67, 32.03 42.27, 25.77 40 M25.77 40 C20.29 39.62, 15.52 41.53, 8.59 40 M25.77 40 C19.56 39.7, 13.98 39.76, 8.59 40 M8.59 40 C4.01 39.64, 1.1 37.9, 0 31.41 M8.59 40 C2.82 39.71, -0.4 36.37, 0 31.41 M0 31.41 C-2.04 25.65, 0.62 16.2, 0 8.59 M0 31.41 C0.78 23.03, 0.47 15.22, 0 8.59 M0 8.59 C-0.02 1.58, 3.96 -1.57, 8.59 0 M0 8.59 C0.77 1.99, 0.83 0.22, 8.59 0" stroke="#35393b" stroke-width="1" fill="none"></path></g><g stroke-linecap="round" transform="translate(1054.9133820078678 297.7790532016959) rotate(0 2.364892992826981 11.795224324124774)"><path d="M1.97 -1.34 L2.91 1.36 L5.57 22.64 L1.52 22.91" stroke="none" stroke-width="0" fill="#35393b"></path><path d="M0.32 -0.25 C1.75 0.04, 2.96 -0.06, 4.66 0.44 M0.01 0.1 C1.4 0.14, 2.67 0.13, 4.8 0.04 M2.89 -1.89 C6.16 8.12, 5.73 12.41, 4.89 21.95 M3.87 0.37 C3.69 6.81, 5.46 13.1, 4.94 23.13 M5.06 23.14 C2.87 23.33, 1.16 23.5, 0.21 23.99 M4.9 23.78 C2.72 23.36, 0.94 23.63, 0.23 23.66 M-0.43 24.79 C1.82 16.76, -0.13 10.14, -0.89 -1.07 M-0.18 24.14 C0.49 16.85, -0.02 9.97, -0.33 0.12" stroke="#35393b" stroke-width="1" fill="none"></path></g><g stroke-linecap="round" transform="translate(1063.653055848638 290.1988510687604) rotate(0 2.4209964625609928 15.466884732265953)"><path d="M-1.34 -1.82 L6.2 0.84 L3.89 32.45 L-0.68 31.68" stroke="none" stroke-width="0" fill="#35393b"></path><path d="M-0.25 0.18 C1.32 -0.23, 2.51 -0.1, 5.29 -0.15 M0.1 0.13 C1.74 0.13, 3.33 0.07, 4.88 -0.03 M2.95 1.61 C6.18 8.05, 3.65 13.91, 3.2 30.39 M5.21 -0.96 C4.94 8.98, 4.79 16.54, 4.38 31.34 M4.38 30.68 C3.21 30.61, 2.03 31.18, 0.4 31.4 M5.04 30.79 C2.87 30.92, 1.4 31.21, 0.07 30.99 M1.2 32.73 C0.76 21.77, 1.77 12.02, -1.07 -0.3 M0.55 31.31 C-0.2 22.94, -0.35 14.86, 0.12 0.99" stroke="#35393b" stroke-width="1" fill="none"></path></g><g stroke-linecap="round" transform="translate(1072.2680553122223 302.2797982181271) rotate(0 2.1903488647659515 9.544851815909283)"><path d="M-1.82 1.36 L5.22 -0.95 L5.9 18.41 L0.75 20.49" stroke="none" stroke-width="0" fill="#35393b"></path><path d="M0.16 0.03 C1.04 -0.04, 2.38 0.43, 4.25 0.13 M0.12 0.13 C1.44 0.11, 2.71 0.02, 4.36 -0.17 M5.92 1.23 C5.33 4.86, 4.36 10.54, 3.86 18.4 M3.47 0.35 C4.99 4.28, 4.42 7.7, 4.77 18.9 M4.15 18.84 C2.67 18.96, 1.79 19.41, 0.42 19.36 M4.25 18.89 C3.16 19.18, 2.24 19.19, 0.05 19.07 M1.72 19.84 C-0.1 14.9, -0.81 6.26, -0.29 -0.87 M0.36 19.07 C-0.08 12.1, -0.28 5.56, 0.94 -0.64" stroke="#35393b" stroke-width="1" fill="none"></path></g><g stroke-linecap="round" transform="translate(1042.7690694276207 363.8815375434027) rotate(0 24.705641672639672 24.872538248697936)"><path d="M10.69 -1.48 L40.44 -1.46 L43.33 2.34 L49.46 6 L49 10.92 L47.34 38.49 L47.65 43.67 L43.73 48.42 L38.68 49.04 L9.62 49.2 L3.74 48.24 L1.89 43.51 L0.91 38.8 L0.49 7.72 L6.12 2.25 L11.51 0.55" stroke="none" stroke-width="0" fill="#35393b"></path><path d="M12.35 0 M12.35 0 C21.43 -0.72, 28.79 0.99, 37.06 0 M12.35 0 C20.66 0.91, 28.54 -0.61, 37.06 0 M37.06 0 C46.42 -1.4, 50.01 5.73, 49.41 12.35 M37.06 0 C45.35 1.68, 49.2 3.25, 49.41 12.35 M49.41 12.35 C47.72 20.22, 49.47 29.85, 49.41 37.39 M49.41 12.35 C49.64 18.21, 50.63 25.25, 49.41 37.39 M49.41 37.39 C49.63 47.56, 47.06 50.77, 37.06 49.75 M49.41 37.39 C50.43 45.3, 47.4 47.59, 37.06 49.75 M37.06 49.75 C29.31 49.94, 24.69 50.49, 12.35 49.75 M37.06 49.75 C27.78 49.91, 18.71 49.5, 12.35 49.75 M12.35 49.75 C4.56 48.4, 0.53 47.06, 0 37.39 M12.35 49.75 C3.15 48.41, -0.3 47.72, 0 37.39 M0 37.39 C1.73 28.74, -0.56 22.64, 0 12.35 M0 37.39 C-1.15 30.77, 0.5 25.31, 0 12.35 M0 12.35 C-0.19 3.76, 5.73 0.22, 12.35 0 M0 12.35 C-0.68 2.56, 5.16 -1.72, 12.35 0" stroke="#35393b" stroke-width="1" fill="none"></path></g><g stroke-linecap="round" transform="translate(1049.1300332698456 368.66080768907375) rotate(0 17.180000646007784 20.00059776699419)"><path d="M7.11 0.49 L27.87 -0.72 L34.43 6.62 L35.54 31 L32.39 33.29 L27.73 39.44 L3.58 38.61 L0.95 36.79 L-0.17 4.99 L4.48 -0.55 L8.82 0.15" stroke="none" stroke-width="0" fill="white"></path><path d="M8.59 0 M8.59 0 C12.3 0.54, 17.59 0.32, 25.77 0 M8.59 0 C12.64 0.14, 17.95 -0.33, 25.77 0 M25.77 0 C32.06 1.04, 34.96 4.53, 34.36 8.59 M25.77 0 C31.62 0.36, 36.48 2.59, 34.36 8.59 M34.36 8.59 C35.08 15.69, 34.54 21.04, 34.36 31.41 M34.36 8.59 C34.2 15.08, 33.43 21.22, 34.36 31.41 M34.36 31.41 C34.43 36.36, 30.79 41.89, 25.77 40 M34.36 31.41 C33.47 37.11, 29.72 42.25, 25.77 40 M25.77 40 C22.76 41.05, 17.47 39.92, 8.59 40 M25.77 40 C18.88 39.23, 11.93 40.14, 8.59 40 M8.59 40 C4.17 40.96, 1.23 37.53, 0 31.41 M8.59 40 C0.9 39.19, 0.86 36.03, 0 31.41 M0 31.41 C0.48 26.07, -0.89 16.69, 0 8.59 M0 31.41 C0.79 24.95, 0.78 17.68, 0 8.59 M0 8.59 C-0.31 2.87, 1.51 1.42, 8.59 0 M0 8.59 C0.37 0.63, 1.02 1.56, 8.59 0" stroke="#35393b" stroke-width="1" fill="none"></path></g><g stroke-linecap="round" transform="translate(1054.9133820078678 384.3023008145432) rotate(0 2.364892992826981 11.795224324124774)"><path d="M0.44 -1.34 L5.26 1.43 L3.89 22.43 L-0.26 25.41" stroke="none" stroke-width="0" fill="#35393b"></path><path d="M0.14 0.42 C1.81 -0.07, 2.73 -0.42, 4.31 -0.01 M0.19 -0.08 C1.14 -0.05, 2.12 0.02, 4.75 -0.17 M5.5 1.29 C5.41 7.31, 5.44 16.72, 3.84 23.99 M5.25 0.3 C5.48 8.47, 4.81 17.76, 4.61 23 M5.11 23.6 C3.39 23.56, 1.18 23.91, -0.03 23.52 M4.64 23.51 C3.93 23.5, 2.68 23.41, 0.23 23.5 M1.02 24.47 C-0.51 18.08, -2.1 8.45, -0.38 -1.71 M0.48 24.21 C0.15 16.74, -0.4 11.97, -0.48 -0.03" stroke="#35393b" stroke-width="1" fill="none"></path></g><g stroke-linecap="round" transform="translate(1063.653055848638 376.7220986816077) rotate(0 2.4209964625609928 15.466884732265953)"><path d="M-1.34 0.53 L6.27 -0.84 L3.68 30.67 L1.82 30.83" stroke="none" stroke-width="0" fill="#35393b"></path><path d="M0.43 0.29 C0.95 -0.36, 1.65 -0.45, 4.84 -0.3 M-0.09 0.02 C1.2 -0.17, 2.52 -0.02, 4.67 0.11 M6.13 0.52 C3.96 12, 5.23 22.02, 5.24 32.07 M5.14 0.83 C4.98 8.4, 5.85 16.36, 4.25 31.5 M4.85 31.29 C3.68 30.79, 2.93 30.94, -0.07 30.53 M4.76 31.16 C3.6 30.91, 2.36 31.15, -0.09 30.96 M0.88 30.65 C1.55 16.79, -0.74 6, -1.71 -0.91 M0.62 31.13 C-1.05 20.67, 0.17 10.63, -0.03 0.22" stroke="#35393b" stroke-width="1" fill="none"></path></g><g stroke-linecap="round" transform="translate(1072.2680553122223 388.8030458309744) rotate(0 2.1903488647659515 9.544851815909283)"><path d="M0.53 1.43 L3.54 -1.16 L4.12 20.91 L-0.11 21.09" stroke="none" stroke-width="0" fill="#35393b"></path><path d="M0.26 -0.09 C0.73 -0.45, 1.68 -0.04, 4.11 -0.19 M0.02 -0.04 C1.29 0.04, 2.83 -0.14, 4.48 0.15 M4.87 -0.8 C4.97 5.87, 3.6 11.31, 5.47 18.45 M5.17 0.05 C4.63 7.14, 4.36 11.96, 4.92 18.42 M4.7 19.05 C2.77 19.37, 1.46 19.03, -0.37 18.81 M4.59 19 C3.05 18.91, 1.93 18.99, 0.02 19.3 M-0.27 20.83 C-1.88 11.23, -0.46 2.62, -0.87 0.39 M0.19 18.28 C-0.43 12.47, -0.55 5.11, 0.21 -0.64" stroke="#35393b" stroke-width="1" fill="none"></path></g><g stroke-linecap="round" transform="translate(1042.7690694276207 450.40478515625) rotate(0 24.705641672639672 24.872538248697936)"><path d="M10.55 -0.19 L39 1.94 L45.7 -0.25 L46.39 5.11 L48.57 10.49 L48.6 41.68 L48.39 45.34 L46.1 48.48 L36.91 51.71 L7.7 48.35 L3.12 46.7 L3.12 46.39 L-0.6 36.77 L0.14 6.38 L3.03 1.39 L11.67 -0.52" stroke="none" stroke-width="0" fill="#35393b"></path><path d="M12.35 0 M12.35 0 C17.25 -0.82, 25.32 -1.32, 37.06 0 M12.35 0 C19.93 -0.01, 27.15 0.4, 37.06 0 M37.06 0 C47.1 -1.14, 49.06 4.63, 49.41 12.35 M37.06 0 C44.29 1.98, 50.56 5.89, 49.41 12.35 M49.41 12.35 C48.55 21.49, 49.24 29.24, 49.41 37.39 M49.41 12.35 C49 18.49, 49.51 25.86, 49.41 37.39 M49.41 37.39 C49.63 46.66, 46.58 50.69, 37.06 49.75 M49.41 37.39 C50.9 44.39, 47.05 51.43, 37.06 49.75 M37.06 49.75 C29.04 51.47, 18.05 50.7, 12.35 49.75 M37.06 49.75 C29.35 48.73, 23.5 50.04, 12.35 49.75 M12.35 49.75 C2.57 48.05, 1.2 44.88, 0 37.39 M12.35 49.75 C3.87 49.55, 1.37 45.43, 0 37.39 M0 37.39 C-0.71 30.42, -0.36 23.59, 0 12.35 M0 37.39 C-0.19 30.84, -0.19 23.83, 0 12.35 M0 12.35 C0.77 5.13, 2.55 1.21, 12.35 0 M0 12.35 C-0.6 3.68, 3.86 1.26, 12.35 0" stroke="#35393b" stroke-width="1" fill="none"></path></g><g stroke-linecap="round" transform="translate(1049.1300332698456 455.18405530192103) rotate(0 17.180000646007784 20.000597766994247)"><path d="M8.4 -0.95 L31.27 1.65 L31.84 3.55 L34.64 30.57 L31.96 34.55 L30.92 40.18 L5.25 40.97 L1.01 35.02 L2.5 3.08 L3.63 -1.17 L7.28 1.38" stroke="none" stroke-width="0" fill="white"></path><path d="M8.59 0 M8.59 0 C14.47 -0.44, 19.88 -0.24, 25.77 0 M8.59 0 C13.15 0.48, 16.97 -0.25, 25.77 0 M25.77 0 C31.15 -1.2, 34.56 2.8, 34.36 8.59 M25.77 0 C30.15 -0.19, 34 1.66, 34.36 8.59 M34.36 8.59 C34.21 16.52, 33.69 25.15, 34.36 31.41 M34.36 8.59 C34.61 16.39, 34.1 24.86, 34.36 31.41 M34.36 31.41 C34.17 36.94, 31.11 38.82, 25.77 40 M34.36 31.41 C32.37 36.53, 29.46 40.57, 25.77 40 M25.77 40 C22.66 40.9, 18.45 39.16, 8.59 40 M25.77 40 C20.01 40.22, 13.43 40.87, 8.59 40 M8.59 40 C2.64 40.94, -0.55 38.95, 0 31.41 M8.59 40 C1.45 37.74, -1.99 36.91, 0 31.41 M0 31.41 C1.37 22.8, -0.04 15.52, 0 8.59 M0 31.41 C0.52 22.52, -0.27 15.47, 0 8.59 M0 8.59 C-0.23 4.84, 2.54 -0.78, 8.59 0 M0 8.59 C-0.02 2.2, 4.12 -0.66, 8.59 0" stroke="#35393b" stroke-width="1" fill="none"></path></g><g stroke-linecap="round" transform="translate(1054.9133820078678 470.82554842739046) rotate(0 2.364892992826981 11.795224324124774)"><path d="M-1.55 -1.7 L5.93 -0.75 L4.51 23.42 L1.19 23.41" stroke="none" stroke-width="0" fill="#35393b"></path><path d="M-0.47 -0.3 C1.26 -0.23, 1.95 -0.17, 5.06 0.17 M-0.02 0.23 C1.31 -0.15, 2.83 -0.17, 4.89 0.17 M4.16 -1.8 C4.31 5.69, 4.13 12.12, 4.71 24.58 M4.13 0.1 C4.62 4.41, 4.56 9.85, 4.2 23.84 M4.85 23.38 C3.29 23.82, 1.4 23.78, 0.03 23.5 M4.71 23.54 C3.38 23.38, 2.25 23.38, 0.06 23.46 M0.95 24.89 C-1.2 17.78, 1.34 10.52, 1.64 0.2 M0.47 23.31 C0.7 14.27, -1.18 5.32, -0.1 0.44" stroke="#35393b" stroke-width="1" fill="none"></path></g><g stroke-linecap="round" transform="translate(1063.653055848638 463.245346294455) rotate(0 2.4209964625609928 15.466884732265953)"><path d="M-1.7 1.2 L4.09 -0.22 L4.67 32.12 L-0.18 31.23" stroke="none" stroke-width="0" fill="#35393b"></path><path d="M-0.31 0.07 C1.67 -0.4, 3.6 0.38, 5.01 0.1 M0.24 -0.21 C1.67 -0.2, 3.48 0.17, 5.02 -0.07 M3.04 -0.34 C4.07 7.8, 4.13 16.63, 5.83 29.17 M4.94 -0.03 C4.2 8.12, 4.63 15.88, 5.09 31.84 M4.63 31.35 C3.91 31.32, 2.69 30.98, -0.09 30.72 M4.79 30.79 C3.03 30.87, 1.43 30.99, -0.13 30.96 M1.3 29.86 C1.33 21.52, 1.4 10.82, 0.2 1.38 M-0.28 31.84 C-0.58 18.04, -0.83 7, 0.44 -0.78" stroke="#35393b" stroke-width="1" fill="none"></path></g><g stroke-linecap="round" transform="translate(1072.2680553122223 475.32629344382167) rotate(0 2.1903488647659515 9.544851815909283)"><path d="M1.2 -0.75 L4.16 -0.17 L5.57 18.91 L0.3 20.08" stroke="none" stroke-width="0" fill="#35393b"></path><path d="M0.06 -0.19 C1.15 -0.11, 3.42 0.18, 4.47 0.33 M-0.19 -0.13 C1.23 -0.19, 2.99 0.12, 4.31 -0.07 M4.05 -0.65 C3.83 4.55, 4.3 11.2, 2.7 18.42 M4.35 -0.56 C4.19 5.24, 3.77 11.02, 5.24 18.54 M4.76 19.31 C3.48 19.25, 1.94 18.99, -0.19 19.22 M4.25 18.9 C3.05 18.89, 1.89 18.96, 0.02 19.2 M-1.03 20.55 C1.31 13.67, 1.48 5.37, 1.32 1.63 M0.86 18.5 C-1.03 12.75, -0.19 8.48, -0.74 -0.81" stroke="#35393b" stroke-width="1" fill="none"></path></g><g transform="translate(35.809549967447765 293.4788614908855) rotate(0 72.5 16)"><text x="0" y="26" font-family="Helvetica, Segoe UI Emoji" font-size="28px" fill="black" text-anchor="start" style="white-space: pre;" direction="ltr">Usage Plan</text></g><g stroke-linecap="round" transform="translate(33.535257975260436 340.6614922418768) rotate(0 13.995697021484375 13.995697021484375)"><path d="M19.31 1.12 C22.19 2.01, 25.2 4.4, 26.72 6.77 C28.24 9.15, 28.89 12.51, 28.43 15.37 C27.96 18.23, 26.2 21.74, 23.91 23.91 C21.62 26.07, 17.74 28.24, 14.69 28.35 C11.64 28.47, 8.02 26.42, 5.6 24.6 C3.19 22.77, 0.95 20.37, 0.21 17.4 C-0.54 14.43, -0.22 9.62, 1.14 6.8 C2.51 3.99, 5.14 1.27, 8.41 0.51 C11.67 -0.25, 18.05 1.77, 20.72 2.26 C23.4 2.75, 24.49 3.19, 24.45 3.46 M14.07 1.25 C16.92 0.67, 18.73 0.85, 20.78 2.26 C22.83 3.67, 25.23 6.89, 26.38 9.7 C27.54 12.51, 28.64 16.33, 27.71 19.12 C26.77 21.91, 23.75 25.03, 20.78 26.45 C17.81 27.86, 13.04 28.34, 9.89 27.6 C6.74 26.86, 3.31 24.38, 1.87 21.99 C0.42 19.6, 0.84 16.24, 1.22 13.25 C1.59 10.26, 2.14 6.16, 4.12 4.05 C6.11 1.95, 11.74 1.02, 13.15 0.63 C14.55 0.24, 12.42 1.82, 12.55 1.72" stroke="none" stroke-width="0" fill="#35393b"></path><path d="M10.99 0.82 C13.49 -0.12, 16.33 -0.15, 18.76 1.16 C21.19 2.47, 23.98 5.85, 25.59 8.69 C27.21 11.53, 28.98 15.45, 28.44 18.2 C27.9 20.94, 24.91 23.69, 22.34 25.16 C19.78 26.64, 15.91 27.38, 13.05 27.04 C10.19 26.71, 7.26 24.92, 5.18 23.16 C3.09 21.39, 1.14 19.18, 0.54 16.44 C-0.06 13.71, -0.71 9.57, 1.58 6.77 C3.87 3.97, 11.56 0.68, 14.29 -0.34 C17.02 -1.35, 17.97 0.27, 17.95 0.68 M17.4 0.3 C20.08 0.78, 22.22 2.94, 24.05 5.51 C25.88 8.07, 28.25 12.52, 28.38 15.67 C28.51 18.81, 26.97 22.46, 24.85 24.36 C22.73 26.27, 18.61 26.7, 15.67 27.09 C12.74 27.49, 9.68 28.16, 7.22 26.72 C4.76 25.27, 2.05 21.58, 0.91 18.43 C-0.23 15.28, -0.97 10.52, 0.37 7.81 C1.7 5.11, 5.99 3.48, 8.91 2.19 C11.83 0.89, 16.59 0.14, 17.9 0.03 C19.2 -0.08, 17.12 1.12, 16.75 1.53" stroke="#35393b" stroke-width="1" fill="none"></path></g><g stroke-linecap="round" transform="translate(38.477328278817026 353.2010037459007) rotate(0 9.151032667893631 1.4432574966413654)"><path d="M0.12 1.36 L18.69 -1.15 L18.82 1.71 L2.65 3.38 L-0.92 -0.01" stroke="none" stroke-width="0" fill="white"></path><path d="M0.72 0 M0.72 0 C5.78 -0.09, 7.56 -0.28, 17.58 0 M0.72 0 C4.6 0.9, 7.1 0.59, 17.58 0 M17.58 0 C19.61 -0.69, 20.25 0.38, 18.3 0.72 M17.58 0 C19.4 1.61, 19.33 -0.18, 18.3 0.72 M18.3 0.72 C18.2 1.13, 18.34 1.65, 18.3 2.16 M18.3 0.72 C18.27 1.25, 18.36 1.71, 18.3 2.16 M18.3 2.16 C18.69 1.68, 17.05 4.64, 17.58 2.89 M18.3 2.16 C19.28 3.87, 17.57 2.45, 17.58 2.89 M17.58 2.89 C11.01 4.65, 6.56 2.84, 0.72 2.89 M17.58 2.89 C14.41 2.89, 10.58 2.2, 0.72 2.89 M0.72 2.89 C1.81 1.5, 1.03 3.37, 0 2.16 M0.72 2.89 C1.31 2.35, -0.09 4.48, 0 2.16 M0 2.16 C-0.05 1.74, 0.03 1.62, 0 0.72 M0 2.16 C-0.01 1.76, 0.03 1.55, 0 0.72 M0 0.72 C1.58 -1.28, -0.02 -1.47, 0.72 0 M0 0.72 C-0.84 1.73, -0.79 1.15, 0.72 0" stroke="#000000" stroke-width="1" fill="none"></path></g><g stroke-linecap="round" transform="translate(38.57718609480111 353.83135620929863) rotate(89.99999999999994 9.151032667893631 1.2872296591665986)"><path d="M2 1.11 L16.51 0.51 L17.85 3.86 L1.14 0.93 L0.63 -1.86" stroke="none" stroke-width="0" fill="white"></path><path d="M0.64 0 M0.64 0 C7.39 -0.31, 13.9 -1.73, 17.66 0 M0.64 0 C7.88 -0.71, 14.07 0.58, 17.66 0 M17.66 0 C17.39 1.95, 18.44 1.38, 18.3 0.64 M17.66 0 C19.69 1.03, 17.88 -0.08, 18.3 0.64 M18.3 0.64 C18.3 1.09, 18.39 1.52, 18.3 1.93 M18.3 0.64 C18.34 1.14, 18.31 1.58, 18.3 1.93 M18.3 1.93 C17.33 1.35, 19.84 3.43, 17.66 2.57 M18.3 1.93 C19.53 1.87, 17.65 3.97, 17.66 2.57 M17.66 2.57 C15.56 3.67, 9.93 1.21, 0.64 2.57 M17.66 2.57 C11.31 3.22, 4.34 3.36, 0.64 2.57 M0.64 2.57 C-1.17 3.6, 0.72 3.29, 0 1.93 M0.64 2.57 C-0.32 2.49, 1.83 0.89, 0 1.93 M0 1.93 C-0.07 1.62, 0.13 1.17, 0 0.64 M0 1.93 C-0.07 1.58, 0.05 1.24, 0 0.64 M0 0.64 C-1.52 -0.05, -1.25 -0.73, 0.64 0 M0 0.64 C1.49 -0.82, 1.36 -0.27, 0.64 0" stroke="#000000" stroke-width="1" fill="none"></path></g><g stroke-linecap="round" transform="translate(44.9624436672064 353.8954968923531) rotate(0 2.5390858839467825 0.9621163876783498)"><path d="M0.48 0 L4.6 0 L5.08 1.44 L0.48 1.92 L0.48 0" stroke="none" stroke-width="0" fill="white"></path><path d="M0.48 0 M0.48 0 C2.06 0, 3.64 0, 4.6 0 M0.48 0 C1.31 0, 2.14 0, 4.6 0 M4.6 0 C4.92 0, 5.08 0.16, 5.08 0.48 M4.6 0 C4.92 0, 5.08 0.16, 5.08 0.48 M5.08 0.48 C5.08 0.77, 5.08 1.05, 5.08 1.44 M5.08 0.48 C5.08 0.76, 5.08 1.05, 5.08 1.44 M5.08 1.44 C5.08 1.76, 4.92 1.92, 4.6 1.92 M5.08 1.44 C5.08 1.76, 4.92 1.92, 4.6 1.92 M4.6 1.92 C3.16 1.92, 1.72 1.92, 0.48 1.92 M4.6 1.92 C3.22 1.92, 1.85 1.92, 0.48 1.92 M0.48 1.92 C0.16 1.92, 0 1.76, 0 1.44 M0.48 1.92 C0.16 1.92, 0 1.76, 0 1.44 M0 1.44 C0 1.22, 0 0.99, 0 0.48 M0 1.44 C0 1.1, 0 0.75, 0 0.48 M0 0.48 C0 0.16, 0.16 0, 0.48 0 M0 0.48 C0 0.16, 0.16 0, 0.48 0" stroke="white" stroke-width="1" fill="none"></path></g><g transform="translate(68.43711344401044 343.15718926336115) rotate(0 31 11.5)"><text x="0" y="18" font-family="Helvetica, Segoe UI Emoji" font-size="20px" fill="black" text-anchor="start" style="white-space: pre;" direction="ltr">access</text></g><g stroke-linecap="round" transform="translate(34.000528971354186 383.3330179850261) rotate(0 13.995697021484375 13.995697021484375)"><path d="M13.12 0.46 C15.99 0.3, 19.77 1.9, 22.1 3.59 C24.43 5.28, 26.54 7.7, 27.12 10.6 C27.7 13.5, 26.86 18.25, 25.58 20.99 C24.3 23.72, 21.99 25.86, 19.44 27.01 C16.89 28.15, 13.17 28.65, 10.29 27.87 C7.4 27.1, 3.74 24.84, 2.13 22.34 C0.53 19.85, 0.36 16.01, 0.65 12.9 C0.93 9.79, 1.42 5.72, 3.85 3.67 C6.28 1.61, 12.99 1.18, 15.23 0.57 C17.46 -0.04, 17.35 -0.31, 17.26 0 M18.76 2.52 C21.13 3.51, 24.75 6.08, 26.39 8.83 C28.03 11.58, 29.51 16.17, 28.61 19.01 C27.72 21.86, 23.59 24.37, 21.04 25.9 C18.49 27.44, 16.38 28.32, 13.33 28.22 C10.27 28.13, 5.06 27.49, 2.71 25.33 C0.36 23.17, -0.57 18.67, -0.77 15.25 C-0.96 11.83, -0.47 7.48, 1.54 4.81 C3.55 2.14, 8.14 -0.32, 11.28 -0.76 C14.42 -1.19, 18.73 1.65, 20.37 2.18 C22 2.71, 21.47 2.32, 21.09 2.43" stroke="none" stroke-width="0" fill="#35393b"></path><path d="M17.37 -0.09 C20.09 0.13, 23.19 2.18, 25.1 4.52 C27.02 6.86, 29 10.99, 28.86 13.97 C28.72 16.94, 26.41 20.2, 24.25 22.37 C22.09 24.54, 18.94 26.33, 15.89 26.97 C12.85 27.6, 8.5 27.71, 5.99 26.19 C3.48 24.66, 1.48 20.73, 0.82 17.81 C0.15 14.88, 0.88 11.27, 2.01 8.66 C3.15 6.05, 4.86 3.49, 7.64 2.15 C10.42 0.81, 16.75 0.75, 18.69 0.59 C20.64 0.44, 19.58 1.14, 19.3 1.25 M19.78 0.87 C22.1 1.86, 24.57 4.53, 25.91 7.53 C27.25 10.54, 28.58 15.91, 27.83 18.91 C27.09 21.92, 23.9 24.13, 21.46 25.56 C19.01 26.99, 15.85 27.93, 13.17 27.49 C10.5 27.06, 7.46 24.96, 5.4 22.93 C3.33 20.9, 1.34 18.23, 0.78 15.32 C0.21 12.41, 0.27 8.17, 2.01 5.48 C3.75 2.78, 8.18 -0.11, 11.23 -0.83 C14.27 -1.55, 18.67 0.69, 20.27 1.14 C21.86 1.59, 20.96 1.48, 20.78 1.86" stroke="#35393b" stroke-width="1" fill="none"></path></g><g stroke-linecap="round" transform="translate(38.942599274910776 395.87252948905007) rotate(0 9.151032667893631 1.4432574966413654)"><path d="M0.74 -0.88 L16.72 0.84 L19.62 2.81 L1.65 2.1 L0.88 -1.71" stroke="none" stroke-width="0" fill="white"></path><path d="M0.72 0 M0.72 0 C5.59 -0.06, 12.3 -0.97, 17.58 0 M0.72 0 C7.16 0.01, 12.1 0.52, 17.58 0 M17.58 0 C19.44 0.01, 18.94 0.3, 18.3 0.72 M17.58 0 C16.66 -1.62, 20.33 2.05, 18.3 0.72 M18.3 0.72 C18.22 1.07, 18.33 1.66, 18.3 2.16 M18.3 0.72 C18.28 1.17, 18.26 1.53, 18.3 2.16 M18.3 2.16 C18.55 1.89, 17.49 3.92, 17.58 2.89 M18.3 2.16 C16.33 3.08, 17.75 4.3, 17.58 2.89 M17.58 2.89 C12.89 2.93, 6.76 1.79, 0.72 2.89 M17.58 2.89 C12.23 3.48, 7.31 2.53, 0.72 2.89 M0.72 2.89 C-1.28 3.68, 0.45 2.69, 0 2.16 M0.72 2.89 C1.72 4.21, 0.05 4.84, 0 2.16 M0 2.16 C0 1.59, 0.05 1.08, 0 0.72 M0 2.16 C0.08 1.91, 0.07 1.48, 0 0.72 M0 0.72 C1.58 -0.19, 1.15 1.49, 0.72 0 M0 0.72 C2.03 -1.18, 0.86 0.95, 0.72 0" stroke="#000000" stroke-width="1" fill="none"></path></g><g stroke-linecap="round" transform="translate(39.04245709089486 396.502881952448) rotate(89.99999999999994 9.151032667893631 1.2872296591665986)"><path d="M-0.24 -0.86 L18.5 1.32 L18.94 2.86 L-0.14 2.73 L-1.07 1.76" stroke="none" stroke-width="0" fill="white"></path><path d="M0.64 0 M0.64 0 C4.78 -1.34, 8.09 0.72, 17.66 0 M0.64 0 C5.89 0.01, 11.74 0.42, 17.66 0 M17.66 0 C18.1 0.64, 18.36 -1.01, 18.3 0.64 M17.66 0 C16.47 2.03, 20.11 -0.16, 18.3 0.64 M18.3 0.64 C18.25 1.04, 18.4 1.34, 18.3 1.93 M18.3 0.64 C18.36 1, 18.34 1.43, 18.3 1.93 M18.3 1.93 C17.55 1.79, 19.13 0.86, 17.66 2.57 M18.3 1.93 C18.74 2.05, 19.5 2.98, 17.66 2.57 M17.66 2.57 C12.69 2.53, 6.62 2.48, 0.64 2.57 M17.66 2.57 C13.77 2, 8.41 1.84, 0.64 2.57 M0.64 2.57 C1.01 3.02, 0.05 3.64, 0 1.93 M0.64 2.57 C1.54 2.62, 2.19 3.53, 0 1.93 M0 1.93 C-0.05 1.49, -0.06 0.83, 0 0.64 M0 1.93 C0.05 1.7, -0.06 1.43, 0 0.64 M0 0.64 C-0.43 1.12, 1.71 1.77, 0.64 0 M0 0.64 C-1.42 0.83, 1.17 0.45, 0.64 0" stroke="#000000" stroke-width="1" fill="none"></path></g><g stroke-linecap="round" transform="translate(45.42771466330015 396.56702263550244) rotate(0 2.5390858839467825 0.9621163876783498)"><path d="M0.48 0 L4.6 0 L5.08 1.44 L0.48 1.92 L0.48 0" stroke="none" stroke-width="0" fill="white"></path><path d="M0.48 0 M0.48 0 C1.66 0, 2.83 0, 4.6 0 M0.48 0 C1.5 0, 2.53 0, 4.6 0 M4.6 0 C4.92 0, 5.08 0.16, 5.08 0.48 M4.6 0 C4.92 0, 5.08 0.16, 5.08 0.48 M5.08 0.48 C5.08 0.74, 5.08 1, 5.08 1.44 M5.08 0.48 C5.08 0.8, 5.08 1.12, 5.08 1.44 M5.08 1.44 C5.08 1.76, 4.92 1.92, 4.6 1.92 M5.08 1.44 C5.08 1.76, 4.92 1.92, 4.6 1.92 M4.6 1.92 C3.14 1.92, 1.68 1.92, 0.48 1.92 M4.6 1.92 C3.18 1.92, 1.76 1.92, 0.48 1.92 M0.48 1.92 C0.16 1.92, 0 1.76, 0 1.44 M0.48 1.92 C0.16 1.92, 0 1.76, 0 1.44 M0 1.44 C0 1.23, 0 1.02, 0 0.48 M0 1.44 C0 1.07, 0 0.69, 0 0.48 M0 0.48 C0 0.16, 0.16 0, 0.48 0 M0 0.48 C0 0.16, 0.16 0, 0.48 0" stroke="white" stroke-width="1" fill="none"></path></g><g transform="translate(68.77244059244794 385.8287150065105) rotate(0 62.5 11.5)"><text x="0" y="18" font-family="Helvetica, Segoe UI Emoji" font-size="20px" fill="black" text-anchor="start" style="white-space: pre;" direction="ltr">authentication</text></g><g stroke-linecap="round" transform="translate(34.50800577799481 425.5131937662761) rotate(0 13.995697021484375 13.995697021484375)"><path d="M9.7 0.18 C12.28 -1.03, 16.71 -0.82, 19.39 0.5 C22.07 1.82, 24.22 5.53, 25.78 8.08 C27.33 10.63, 29.04 12.84, 28.72 15.79 C28.41 18.73, 26.27 23.78, 23.89 25.77 C21.52 27.76, 17.72 28.05, 14.46 27.72 C11.21 27.39, 6.84 25.83, 4.39 23.8 C1.94 21.76, 0.29 18.46, -0.23 15.51 C-0.76 12.57, -1.13 8.68, 1.23 6.14 C3.6 3.59, 11.54 1.21, 13.96 0.26 C16.38 -0.7, 15.96 0.09, 15.74 0.41 M16.24 0.5 C19.1 1.05, 23.32 2.26, 25.08 4.48 C26.84 6.7, 27 10.64, 26.81 13.82 C26.61 17, 26.01 21.29, 23.91 23.57 C21.81 25.84, 17.08 27.24, 14.21 27.46 C11.34 27.67, 8.75 26.23, 6.68 24.83 C4.62 23.44, 2.88 22.03, 1.82 19.06 C0.77 16.09, -0.72 9.87, 0.35 7 C1.41 4.13, 5.35 3, 8.22 1.83 C11.09 0.66, 15.86 -0.04, 17.54 -0.03 C19.22 -0.01, 18.53 1.49, 18.32 1.94" stroke="none" stroke-width="0" fill="#35393b"></path><path d="M12.12 0.94 C15 0.6, 20.16 0.45, 22.76 2.06 C25.36 3.67, 26.97 7.7, 27.7 10.62 C28.43 13.53, 28.46 16.74, 27.14 19.53 C25.82 22.33, 22.64 26.2, 19.76 27.37 C16.88 28.55, 12.79 27.46, 9.88 26.6 C6.97 25.74, 4.01 24.63, 2.3 22.2 C0.58 19.77, -0.82 14.93, -0.42 12.01 C-0.03 9.1, 1.77 6.71, 4.65 4.7 C7.53 2.69, 14.61 0.41, 16.84 -0.05 C19.07 -0.52, 18.26 1.69, 18.04 1.9 M11.79 1.65 C14.56 1.2, 19.42 0.83, 22.17 2.26 C24.92 3.7, 27.35 7.34, 28.29 10.26 C29.23 13.17, 28.86 17.17, 27.79 19.76 C26.72 22.35, 24.66 24.35, 21.87 25.77 C19.08 27.19, 14.18 28.84, 11.06 28.29 C7.93 27.73, 4.83 24.99, 3.13 22.44 C1.42 19.88, 0.81 15.91, 0.83 12.93 C0.84 9.96, 1.24 6.85, 3.21 4.59 C5.19 2.32, 11.31 0.16, 12.66 -0.65 C14.02 -1.46, 11.58 -0.75, 11.35 -0.29" stroke="#35393b" stroke-width="1" fill="none"></path></g><g stroke-linecap="round" transform="translate(39.4500760815514 438.05270527030007) rotate(0 9.151032667893631 1.4432574966413654)"><path d="M2.01 1.88 L18.11 -0.33 L19.09 0.31 L-0.7 4.68 L2.1 -1.01" stroke="none" stroke-width="0" fill="white"></path><path d="M0.72 0 M0.72 0 C5.34 -0.25, 12.54 -0.83, 17.58 0 M0.72 0 C3.85 -0.63, 8.23 0.5, 17.58 0 M17.58 0 C19.66 -0.41, 16.32 1.56, 18.3 0.72 M17.58 0 C17.31 -0.77, 17.38 2.36, 18.3 0.72 M18.3 0.72 C18.45 1.1, 18.43 1.5, 18.3 2.16 M18.3 0.72 C18.31 1.16, 18.34 1.67, 18.3 2.16 M18.3 2.16 C17.2 3.74, 16.18 3.1, 17.58 2.89 M18.3 2.16 C17.25 4.86, 16.64 3, 17.58 2.89 M17.58 2.89 C14.45 4.19, 8.2 4.28, 0.72 2.89 M17.58 2.89 C12.67 2.46, 6.6 3.6, 0.72 2.89 M0.72 2.89 C2.17 1.36, 1.99 4.6, 0 2.16 M0.72 2.89 C1.6 2.26, -1.19 0.72, 0 2.16 M0 2.16 C-0.1 1.93, 0.04 1.28, 0 0.72 M0 2.16 C0.04 1.72, -0.06 1.28, 0 0.72 M0 0.72 C0.07 -0.2, -1.64 -1.52, 0.72 0 M0 0.72 C-2 0.17, -0.16 -1.68, 0.72 0" stroke="#000000" stroke-width="1" fill="none"></path></g><g stroke-linecap="round" transform="translate(39.54993389753548 438.683057733698) rotate(89.99999999999994 9.151032667893631 1.2872296591665986)"><path d="M2.52 0.53 L17.33 0.79 L16.45 0.51 L2.43 3.96 L-0.37 0.34" stroke="none" stroke-width="0" fill="white"></path><path d="M0.64 0 M0.64 0 C5.9 1.21, 10.74 -1.46, 17.66 0 M0.64 0 C4.81 0.51, 10.71 0.76, 17.66 0 M17.66 0 C17.68 -1.98, 19.62 -0.44, 18.3 0.64 M17.66 0 C17.32 -0.92, 20.42 -1.58, 18.3 0.64 M18.3 0.64 C18.36 1.19, 18.43 1.56, 18.3 1.93 M18.3 0.64 C18.27 1.16, 18.29 1.61, 18.3 1.93 M18.3 1.93 C19.4 0.48, 18.3 1.66, 17.66 2.57 M18.3 1.93 C20.52 0.94, 18.2 1.29, 17.66 2.57 M17.66 2.57 C14.06 1.52, 9.3 2.94, 0.64 2.57 M17.66 2.57 C11.59 2.32, 7 3.48, 0.64 2.57 M0.64 2.57 C-1.31 4.57, 1.95 3.54, 0 1.93 M0.64 2.57 C-0.41 1.38, -1.93 1.38, 0 1.93 M0 1.93 C0.13 1.68, -0.12 1.34, 0 0.64 M0 1.93 C-0.04 1.54, -0.06 1.28, 0 0.64 M0 0.64 C-0.44 -1.66, -1.31 -1.74, 0.64 0 M0 0.64 C-0.07 -0.18, -1.47 -0.73, 0.64 0" stroke="#000000" stroke-width="1" fill="none"></path></g><g stroke-linecap="round" transform="translate(45.935191469940776 438.74719841675255) rotate(0 2.5390858839467825 0.9621163876783498)"><path d="M0.48 0 L4.6 0 L5.08 1.44 L0.48 1.92 L0.48 0" stroke="none" stroke-width="0" fill="white"></path><path d="M0.48 0 M0.48 0 C1.92 0, 3.35 0, 4.6 0 M0.48 0 C1.81 0, 3.13 0, 4.6 0 M4.6 0 C4.92 0, 5.08 0.16, 5.08 0.48 M4.6 0 C4.92 0, 5.08 0.16, 5.08 0.48 M5.08 0.48 C5.08 0.86, 5.08 1.23, 5.08 1.44 M5.08 0.48 C5.08 0.81, 5.08 1.13, 5.08 1.44 M5.08 1.44 C5.08 1.76, 4.92 1.92, 4.6 1.92 M5.08 1.44 C5.08 1.76, 4.92 1.92, 4.6 1.92 M4.6 1.92 C3.23 1.92, 1.86 1.92, 0.48 1.92 M4.6 1.92 C3.62 1.92, 2.64 1.92, 0.48 1.92 M0.48 1.92 C0.16 1.92, 0 1.76, 0 1.44 M0.48 1.92 C0.16 1.92, 0 1.76, 0 1.44 M0 1.44 C0 1.22, 0 1, 0 0.48 M0 1.44 C0 1.08, 0 0.72, 0 0.48 M0 0.48 C0 0.16, 0.16 0, 0.48 0 M0 0.48 C0 0.16, 0.16 0, 0.48 0" stroke="white" stroke-width="1" fill="none"></path></g><g transform="translate(69.34485880533856 428.0088907877605) rotate(0 51 11.5)"><text x="0" y="18" font-family="Helvetica, Segoe UI Emoji" font-size="20px" fill="black" text-anchor="start" style="white-space: pre;" direction="ltr">rate limiting</text></g><g stroke-linecap="round"><g transform="translate(125.11161295572924 261.7257181803386) rotate(0 45.81614554098809 0.587182682380103)"><path d="M-1.11 -0.64 C13.92 -0.37, 75.22 1.37, 90.65 1.81 M0.5 1.64 C15.85 1.56, 77.74 0.41, 92.75 0.19" stroke="#35393b" stroke-width="1" fill="none"></path></g><g transform="translate(125.11161295572924 261.7257181803386) rotate(0 45.81614554098809 0.587182682380103)"><path d="M93.1 -0.92 L80.12 5.28 L78.33 -6.1 L92.76 -0.72" stroke="none" stroke-width="0" fill="#35393b" fill-rule="evenodd"></path><path d="M91.95 -1.27 C89.39 1.83, 85.1 5.87, 79.63 6.72 M92.94 0.72 C89.01 2.26, 85.2 4.15, 79.97 6.23 M78.43 7.49 C80.13 1.84, 80.25 -0.62, 80.04 -6.61 M78.92 6.19 C79.4 1.51, 79.44 -2.98, 79.36 -6.12 M80.37 -5.66 C82.85 -4.85, 89.05 -0.43, 91.46 -0.52 M79.46 -5.35 C84.01 -3.75, 88.14 -1.56, 92.32 0.17 M92.75 0.19 C92.75 0.19, 92.75 0.19, 92.75 0.19 M92.75 0.19 C92.75 0.19, 92.75 0.19, 92.75 0.19" stroke="#35393b" stroke-width="1" fill="none"></path></g></g><g stroke-linecap="round"><g transform="translate(1046.9891153971357 214.8129221598308) rotate(0 -15.861087507847742 1.9945998459495513)"><path d="M-0.28 0.93 C-5.81 1.32, -27.14 2.06, -32.53 2.57 M1.77 0.37 C-3.98 0.86, -27.61 3.36, -33.49 3.62" stroke="#35393b" stroke-width="1" fill="none"></path></g><g transform="translate(1046.9891153971357 214.8129221598308) rotate(0 -15.861087507847742 1.9945998459495513)"><path d="M-34.44 2.05 L-22.08 -4.32 L-20.5 8.81 L-33.89 3.92" stroke="none" stroke-width="0" fill="#35393b" fill-rule="evenodd"></path><path d="M-32.33 3.59 C-30.05 0.85, -23.65 -1.65, -21.7 -4.18 M-34.01 3.29 C-30.46 1.74, -27.07 -0.58, -20.31 -3.98 M-20.16 -3.6 C-20.12 -0.2, -19.85 1.79, -20.22 10.1 M-20.71 -3.5 C-19.74 1.29, -19.95 5.74, -19.78 9.15 M-20.76 9.25 C-22.91 6.87, -28.29 6.08, -33.12 3.58 M-19.05 9.51 C-24.22 6.66, -27.09 5.99, -32.98 3.22 M-33.49 3.62 C-33.49 3.62, -33.49 3.62, -33.49 3.62 M-33.49 3.62 C-33.49 3.62, -33.49 3.62, -33.49 3.62" stroke="#35393b" stroke-width="1" fill="none"></path></g></g><g stroke-linecap="round"><g transform="translate(1041.863444010417 301.04084269205737) rotate(0 -16.05541405400254 1.5206320051103717)"><path d="M-0.62 -1.1 C-6.19 -0.37, -28.22 3.45, -33.37 4.15 M1.26 0.93 C-3.95 1.33, -25.61 1.83, -31.11 2.36" stroke="#35393b" stroke-width="1" fill="none"></path></g><g transform="translate(1041.863444010417 301.04084269205737) rotate(0 -16.05541405400254 1.5206320051103717)"><path d="M-31.65 3.94 L-17.42 -5.46 L-19.07 8.31 L-30.3 2.4" stroke="none" stroke-width="0" fill="#35393b" fill-rule="evenodd"></path><path d="M-32.49 1.28 C-26.23 1.48, -23.52 -2.6, -16.87 -4.23 M-31.32 2.51 C-28.9 1.05, -25.25 -1.05, -17.41 -5.14 M-18.28 -4.91 C-17.88 -2.22, -16.82 0.26, -17.13 8.43 M-17.6 -5.17 C-17.66 -1.75, -17.59 1.03, -16.82 7.52 M-17.46 6.81 C-21.65 6.2, -23.61 5.04, -31.21 1.7 M-16.48 7.58 C-19.47 6.96, -23.55 6.12, -31.26 1.63 M-31.11 2.36 C-31.11 2.36, -31.11 2.36, -31.11 2.36 M-31.11 2.36 C-31.11 2.36, -31.11 2.36, -31.11 2.36" stroke="#35393b" stroke-width="1" fill="none"></path></g></g><g stroke-linecap="round"><g transform="translate(1042.284342447917 389.7236429850261) rotate(0 -16.95614476166668 1.7259751085284734)"><path d="M-0.22 -0.9 C-5.72 -0.45, -28.26 2.39, -33.69 3.05 M-1.79 1.24 C-6.89 1.83, -26.27 3.86, -31.6 4.35" stroke="#35393b" stroke-width="1" fill="none"></path></g><g transform="translate(1042.284342447917 389.7236429850261) rotate(0 -16.95614476166668 1.7259751085284734)"><path d="M-30.18 4.05 L-17.69 -4.79 L-15.59 9.22 L-31.56 6.14" stroke="none" stroke-width="0" fill="#35393b" fill-rule="evenodd"></path><path d="M-32.73 2.87 C-29.04 2.09, -25.85 0.55, -19.36 -4.61 M-31.96 5.03 C-27.5 1.56, -23.4 -0.38, -19.44 -2.96 M-18.21 -3.25 C-18.66 0.66, -18.77 6.45, -17.59 8.52 M-18.78 -3.27 C-18.26 0.78, -17.28 5.17, -17 9.14 M-18.86 9.6 C-22.22 7.41, -28.68 6.12, -30.36 5.22 M-17.11 9.07 C-23.15 7.54, -27.87 5.19, -31.09 3.7 M-31.6 4.35 C-31.6 4.35, -31.6 4.35, -31.6 4.35 M-31.6 4.35 C-31.6 4.35, -31.6 4.35, -31.6 4.35" stroke="#35393b" stroke-width="1" fill="none"></path></g></g><g stroke-linecap="round"><g transform="translate(1043.3401285807295 474.79877726236987) rotate(0 -16.5544264965597 2.015867200139894)"><path d="M0.57 -0.04 C-4.75 0.5, -27.13 3, -32.66 3.56 M-0.59 -1.1 C-6.01 -0.39, -28.21 4.19, -33.68 5.13" stroke="#35393b" stroke-width="1" fill="none"></path></g><g transform="translate(1043.3401285807295 474.79877726236987) rotate(0 -16.5544264965597 2.015867200139894)"><path d="M-34.41 5.09 L-19.86 -3.86 L-17.76 9.88 L-31.82 5" stroke="none" stroke-width="0" fill="#35393b" fill-rule="evenodd"></path><path d="M-33.73 4.95 C-30.75 2.91, -28.15 2.18, -21.2 -2.59 M-33.96 4.43 C-30.29 3.01, -27.1 0.07, -21.2 -3.02 M-20.95 -3.07 C-20.99 0.13, -19.7 5.51, -19.98 9.67 M-21.86 -4.14 C-20.49 -0.6, -19.91 1.98, -18.75 8.52 M-19.67 9.82 C-24.45 7.87, -30.43 6.05, -34.23 5.93 M-18.76 8.25 C-23.65 7.44, -29.51 6.84, -33.68 5.25 M-33.68 5.13 C-33.68 5.13, -33.68 5.13, -33.68 5.13 M-33.68 5.13 C-33.68 5.13, -33.68 5.13, -33.68 5.13" stroke="#35393b" stroke-width="1" fill="none"></path></g></g></svg>